<svg width="64" height="64" viewBox="0 0 64 64" fill="none" xmlns="http://www.w3.org/2000/svg">
<path d="M40 21.3333H40.0267" stroke="#6A5AE0" stroke-width="3" stroke-linecap="round" stroke-linejoin="round"/>
<path d="M45.3333 10.6667H18.6667C14.2484 10.6667 10.6667 14.2485 10.6667 18.6667V45.3334C10.6667 49.7517 14.2484 53.3334 18.6667 53.3334H45.3333C49.7516 53.3334 53.3333 49.7517 53.3333 45.3334V18.6667C53.3333 14.2485 49.7516 10.6667 45.3333 10.6667Z" stroke="#6A5AE0" stroke-width="3" stroke-linecap="round" stroke-linejoin="round"/>
<path d="M10.6667 39.9999L21.3333 29.3332C22.5495 28.163 23.929 27.5469 25.3333 27.5469C26.7376 27.5469 28.1172 28.163 29.3333 29.3332L42.6667 42.6665" stroke="#6A5AE0" stroke-width="3" stroke-linecap="round" stroke-linejoin="round"/>
<path d="M37.3333 37.3334L40 34.6667C41.2162 33.4965 42.5957 32.8804 44 32.8804C45.4043 32.8804 46.7839 33.4965 48 34.6667L53.3333 40" stroke="#6A5AE0" stroke-width="3" stroke-linecap="round" stroke-linejoin="round"/>
</svg>
