<svg width="56" height="56" viewBox="0 0 56 56" fill="none" xmlns="http://www.w3.org/2000/svg">
<circle cx="28" cy="28" r="28" fill="#C4D0FB"/>
<mask id="mask0_199_5851" style="mask-type:alpha" maskUnits="userSpaceOnUse" x="0" y="0" width="56" height="56">
<circle cx="28" cy="28" r="28" fill="#C4C4C4"/>
</mask>
<g mask="url(#mask0_199_5851)">
<path fill-rule="evenodd" clip-rule="evenodd" d="M28.0002 14.4963C22.3769 14.4963 17.8184 19.0549 17.8184 24.6782V25.7145C16.7865 25.8876 16.0002 26.785 16.0002 27.8661V30.3596C16.0002 31.4626 16.8186 32.3744 17.8813 32.5209C18.2787 36.0916 20.5226 39.1049 23.6365 40.5842V43.9313C15.9353 44.3459 9.81836 50.7218 9.81836 58.5264H46.182C46.182 50.7218 40.065 44.3459 32.3638 43.9313V40.5842C35.4777 39.1049 37.7217 36.0916 38.119 32.5209C39.1817 32.3744 40.0002 31.4626 40.0002 30.3596V27.8661C40.0002 26.785 39.2139 25.8876 38.182 25.7145V24.6782C38.182 19.0549 33.6234 14.4963 28.0002 14.4963Z" fill="#D0C6AC"/>
<mask id="mask1_199_5851" style="mask-type:alpha" maskUnits="userSpaceOnUse" x="9" y="14" width="38" height="45">
<path fill-rule="evenodd" clip-rule="evenodd" d="M28.0002 14.4963C22.3769 14.4963 17.8184 19.0549 17.8184 24.6782V25.7145C16.7865 25.8876 16.0002 26.785 16.0002 27.8661V30.3596C16.0002 31.4626 16.8186 32.3744 17.8813 32.5209C18.2787 36.0916 20.5226 39.1049 23.6365 40.5842V43.9313C15.9353 44.3459 9.81836 50.7218 9.81836 58.5264H46.182C46.182 50.7218 40.065 44.3459 32.3638 43.9313V40.5842C35.4777 39.1049 37.7217 36.0916 38.119 32.5209C39.1817 32.3744 40.0002 31.4626 40.0002 30.3596V27.8661C40.0002 26.785 39.2139 25.8876 38.182 25.7145V24.6782C38.182 19.0549 33.6234 14.4963 28.0002 14.4963Z" fill="white"/>
</mask>
<g mask="url(#mask1_199_5851)">
<rect x="4" y="14.4963" width="48" height="44.0301" fill="#FFDBB4"/>
<path fill-rule="evenodd" clip-rule="evenodd" d="M17.8184 31.3821V32.8257C17.8184 38.449 22.3769 43.0075 28.0002 43.0075C33.6234 43.0075 38.182 38.449 38.182 32.8257V31.3821C38.182 37.0054 33.6234 41.5639 28.0002 41.5639C22.3769 41.5639 17.8184 37.0053 17.8184 31.3821Z" fill="black" fill-opacity="0.1"/>
</g>
<path fill-rule="evenodd" clip-rule="evenodd" d="M28.0911 48.0291C31.455 48.0291 34.182 46.2937 34.182 44.153C34.182 44.1524 34.182 44.1518 34.182 44.1512C41.0054 45.3806 46.182 51.349 46.182 58.5264H9.81836C9.81836 51.2853 15.0873 45.2748 22.0004 44.1196C22.0003 44.1308 22.0002 44.1419 22.0002 44.153C22.0002 46.2937 24.7272 48.0291 28.0911 48.0291Z" fill="#E6E6E6"/>
<mask id="mask2_199_5851" style="mask-type:alpha" maskUnits="userSpaceOnUse" x="9" y="44" width="38" height="15">
<path fill-rule="evenodd" clip-rule="evenodd" d="M28.0911 48.0291C31.455 48.0291 34.182 46.2937 34.182 44.153C34.182 44.1524 34.182 44.1518 34.182 44.1512C41.0054 45.3806 46.182 51.349 46.182 58.5264H9.81836C9.81836 51.2853 15.0873 45.2748 22.0004 44.1196C22.0003 44.1308 22.0002 44.1419 22.0002 44.153C22.0002 46.2937 24.7272 48.0291 28.0911 48.0291Z" fill="white"/>
</mask>
<g mask="url(#mask2_199_5851)">
<rect x="4" y="38.6768" width="48" height="19.8496" fill="#FF4072"/>
<g opacity="0.6">
<ellipse cx="28.0911" cy="44.4238" rx="7.20638" ry="4.85663" fill="black" fill-opacity="0.16"/>
</g>
</g>
<path d="M25.4541 35.0677C25.4541 36.037 26.5738 36.6918 27.9996 36.6918C29.4253 36.6918 30.545 36.037 30.545 35.0677C30.545 34.8684 30.3723 34.7068 30.1814 34.7068C29.9463 34.7068 29.8414 34.8701 29.8177 35.0677C29.5918 35.5978 29.0329 35.9188 27.9996 35.9699C26.9662 35.9188 26.4073 35.5978 26.1814 35.0677C26.1577 34.8701 26.0528 34.7068 25.8177 34.7068C25.6268 34.7068 25.4541 34.8684 25.4541 35.0677Z" fill="black" fill-opacity="0.6"/>
<path fill-rule="evenodd" clip-rule="evenodd" d="M25.8184 31.4585C25.8184 32.2558 26.7952 32.9021 28.0002 32.9021C29.2052 32.9021 30.182 32.2558 30.182 31.4585" fill="black" fill-opacity="0.16"/>
<ellipse cx="23.2725" cy="28.2104" rx="1.09091" ry="1.08271" fill="black" fill-opacity="0.6"/>
<ellipse cx="32.7276" cy="28.2104" rx="1.09091" ry="1.08271" fill="black" fill-opacity="0.6"/>
<path d="M20.6601 25.8933C21.3719 24.8992 23.3233 24.3418 25.0042 24.7515C25.1993 24.799 25.3962 24.6806 25.4441 24.4871C25.492 24.2935 25.3727 24.098 25.1777 24.0505C23.2255 23.5747 20.9659 24.2202 20.0673 25.4751C19.9509 25.6376 19.9893 25.8629 20.153 25.9784C20.3167 26.0938 20.5437 26.0557 20.6601 25.8933Z" fill="black" fill-opacity="0.6"/>
<path d="M35.3399 25.8933C34.6281 24.8992 32.6767 24.3418 30.9958 24.7515C30.8008 24.799 30.6038 24.6806 30.5559 24.4871C30.508 24.2935 30.6273 24.098 30.8223 24.0505C32.7745 23.5747 35.0341 24.2202 35.9327 25.4751C36.0491 25.6376 36.0107 25.8629 35.847 25.9784C35.6833 26.0938 35.4563 26.0557 35.3399 25.8933Z" fill="black" fill-opacity="0.6"/>
<mask id="mask3_199_5851" style="mask-type:alpha" maskUnits="userSpaceOnUse" x="4" y="8" width="48" height="51">
<rect x="4" y="8" width="48" height="50.5263" fill="white"/>
</mask>
<g mask="url(#mask3_199_5851)">
<path fill-rule="evenodd" clip-rule="evenodd" d="M19.8522 14.8313C20.7869 14.1398 21.892 13.5471 23.0448 13.3195C24.2169 13.0881 24.9281 13.0319 26.082 13.3063C26.3789 13.3769 26.479 13.4471 26.7404 13.2795C26.9605 13.1383 28.4971 11.5671 33.1804 12.4392C37.914 13.3207 39.3202 20.3926 41.0761 20.6617C41.7089 20.7586 42.491 20.5923 42.5154 20.2056C43.2361 21.2944 43.426 22.7332 43.1204 24.0084C42.8574 25.1067 42.3028 26.1386 41.3042 26.7399C40.445 27.2573 39.2571 27.4827 38.2641 27.3873C37.8122 27.3439 37.4013 27.2495 36.9855 27.0686C36.4839 26.8503 36.0843 26.4567 35.5921 26.2488C36.1059 26.6905 36.6652 27.0802 37.2604 27.407C37.5585 27.5705 37.8611 27.6833 38.1901 27.7721C38.4147 27.8328 38.8739 28.0394 39.0912 27.9854C37.6716 28.2374 36.3347 28.0178 35.0331 27.4147C34.4456 27.1426 33.8806 26.8134 33.362 26.4264C32.8469 26.0421 32.2539 25.6493 31.851 25.1436C32.0201 25.3608 31.7242 25.0377 31.6851 24.9982C31.5746 24.8864 31.4663 24.7723 31.3602 24.6563C31.178 24.4571 30.997 24.2543 30.8273 24.0444C30.4648 23.5958 30.1271 23.1273 29.826 22.6362C29.521 22.1389 28.3063 20.1329 27.9396 19.6607C28.286 20.6907 28.6632 21.7211 29.1046 22.7149C28.2476 22.4496 27.4166 21.7144 26.8691 21.0293C26.2524 20.2577 25.8872 19.357 25.7585 18.3829C25.063 20.2624 23.434 21.7446 21.7527 22.7669C22.1169 22.0938 22.6719 21.5245 23.0349 20.8401C21.3638 22.5235 18.568 23.3471 17.8358 25.8158C17.6481 24.9574 17.0444 24.2675 16.8636 23.3918C16.6628 22.4194 16.5187 21.3872 16.5506 20.3934C16.6228 18.1844 18.12 16.1127 19.8522 14.8313Z" fill="#28354B"/>
<mask id="mask4_199_5851" style="mask-type:alpha" maskUnits="userSpaceOnUse" x="16" y="12" width="28" height="17">
<path fill-rule="evenodd" clip-rule="evenodd" d="M19.8522 14.8313C20.7869 14.1398 21.892 13.5471 23.0448 13.3195C24.2169 13.0881 24.9281 13.0319 26.082 13.3063C26.3789 13.3769 26.479 13.4471 26.7404 13.2795C26.9605 13.1383 28.4971 11.5671 33.1804 12.4392C37.914 13.3207 39.3202 20.3926 41.0761 20.6617C41.7089 20.7586 42.491 20.5923 42.5154 20.2056C43.2361 21.2944 43.426 22.7332 43.1204 24.0084C42.8574 25.1067 42.3028 26.1386 41.3042 26.7399C40.445 27.2573 39.2571 27.4827 38.2641 27.3873C37.8122 27.3439 37.4013 27.2495 36.9855 27.0686C36.4839 26.8503 36.0843 26.4567 35.5921 26.2488C36.1059 26.6905 36.6652 27.0802 37.2604 27.407C37.5585 27.5705 37.8611 27.6833 38.1901 27.7721C38.4147 27.8328 38.8739 28.0394 39.0912 27.9854C37.6716 28.2374 36.3347 28.0178 35.0331 27.4147C34.4456 27.1426 33.8806 26.8134 33.362 26.4264C32.8469 26.0421 32.2539 25.6493 31.851 25.1436C32.0201 25.3608 31.7242 25.0377 31.6851 24.9982C31.5746 24.8864 31.4663 24.7723 31.3602 24.6563C31.178 24.4571 30.997 24.2543 30.8273 24.0444C30.4648 23.5958 30.1271 23.1273 29.826 22.6362C29.521 22.1389 28.3063 20.1329 27.9396 19.6607C28.286 20.6907 28.6632 21.7211 29.1046 22.7149C28.2476 22.4496 27.4166 21.7144 26.8691 21.0293C26.2524 20.2577 25.8872 19.357 25.7585 18.3829C25.063 20.2624 23.434 21.7446 21.7527 22.7669C22.1169 22.0938 22.6719 21.5245 23.0349 20.8401C21.3638 22.5235 18.568 23.3471 17.8358 25.8158C17.6481 24.9574 17.0444 24.2675 16.8636 23.3918C16.6628 22.4194 16.5187 21.3872 16.5506 20.3934C16.6228 18.1844 18.12 16.1127 19.8522 14.8313Z" fill="white"/>
</mask>
<g mask="url(#mask4_199_5851)">
<rect x="4" y="8" width="48" height="50.5263" fill="#2C1B18"/>
</g>
</g>
</g>
</svg>
