<svg width="56" height="56" viewBox="0 0 56 56" fill="none" xmlns="http://www.w3.org/2000/svg">
<g clip-path="url(#clip0_199_5855)">
<path d="M0 28C0 12.536 12.536 0 28 0C43.464 0 56 12.536 56 28C56 43.464 43.464 56 28 56C12.536 56 0 43.464 0 28Z" fill="#C4D0FB"/>
<circle cx="28" cy="28" r="28" fill="#C4D0FB"/>
<path fill-rule="evenodd" clip-rule="evenodd" d="M28.0001 13.8728C22.0957 13.8728 17.3092 18.6593 17.3092 24.5637V25.7409C16.2257 25.9226 15.4001 26.8649 15.4001 28.0001V30.6728C15.4001 31.8282 16.2554 32.7839 17.3674 32.9411C17.7621 36.7222 20.1275 39.9171 23.4183 41.4804V45.0199C15.3225 45.5129 8.90918 52.2348 8.90918 60.4545H47.091C47.091 52.2348 40.6777 45.5129 32.5819 45.0199V41.4803C35.8727 39.9171 38.2381 36.7221 38.6327 32.9411C39.7448 32.7839 40.6001 31.8282 40.6001 30.6728V28.0001C40.6001 26.8649 39.7745 25.9226 38.691 25.7409V24.5637C38.691 18.6593 33.9045 13.8728 28.0001 13.8728Z" fill="#D0C6AC"/>
<mask id="mask0_199_5855" style="mask-type:alpha" maskUnits="userSpaceOnUse" x="8" y="13" width="40" height="48">
<path fill-rule="evenodd" clip-rule="evenodd" d="M28.0001 13.8728C22.0957 13.8728 17.3092 18.6593 17.3092 24.5637V25.7409C16.2257 25.9226 15.4001 26.8649 15.4001 28.0001V30.6728C15.4001 31.8282 16.2554 32.7839 17.3674 32.9411C17.7621 36.7222 20.1275 39.9171 23.4183 41.4804V45.0199C15.3225 45.5129 8.90918 52.2348 8.90918 60.4545H47.091C47.091 52.2348 40.6777 45.5129 32.5819 45.0199V41.4803C35.8727 39.9171 38.2381 36.7221 38.6327 32.9411C39.7448 32.7839 40.6001 31.8282 40.6001 30.6728V28.0001C40.6001 26.8649 39.7745 25.9226 38.691 25.7409V24.5637C38.691 18.6593 33.9045 13.8728 28.0001 13.8728Z" fill="white"/>
</mask>
<g mask="url(#mask0_199_5855)">
<rect x="2.7998" y="13.8728" width="50.4" height="46.5818" fill="#FFCCD7"/>
<path fill-rule="evenodd" clip-rule="evenodd" d="M17.3096 31.8184V33.3458C17.3096 39.2502 22.0961 44.0367 28.0005 44.0367C33.9049 44.0367 38.6914 39.2502 38.6914 33.3458V31.8184C38.6914 37.7228 33.9049 42.5093 28.0005 42.5093C22.0961 42.5093 17.3096 37.7228 17.3096 31.8184Z" fill="black" fill-opacity="0.1"/>
</g>
<path fill-rule="evenodd" clip-rule="evenodd" d="M28.0001 50.3464C30.8469 50.3464 33.1546 48.2096 33.1546 45.5737C33.1546 45.4042 33.1451 45.2367 33.1265 45.0718C40.9626 45.8211 47.091 52.4222 47.091 60.4547H8.90918C8.90918 52.4222 15.0375 45.8211 22.8737 45.0718C22.8551 45.2367 22.8455 45.4042 22.8455 45.5737C22.8455 48.2096 25.1533 50.3464 28.0001 50.3464Z" fill="#909292"/>
<mask id="mask1_199_5855" style="mask-type:alpha" maskUnits="userSpaceOnUse" x="8" y="45" width="40" height="16">
<path fill-rule="evenodd" clip-rule="evenodd" d="M28.0001 50.3464C30.8469 50.3464 33.1546 48.2096 33.1546 45.5737C33.1546 45.4042 33.1451 45.2367 33.1265 45.0718C40.9626 45.8211 47.091 52.4222 47.091 60.4547H8.90918C8.90918 52.4222 15.0375 45.8211 22.8737 45.0718C22.8551 45.2367 22.8455 45.4042 22.8455 45.5737C22.8455 48.2096 25.1533 50.3464 28.0001 50.3464Z" fill="white"/>
</mask>
<g mask="url(#mask1_199_5855)">
<rect x="2.7998" y="39.4546" width="50.4" height="21" fill="#909292"/>
</g>
<path fill-rule="evenodd" clip-rule="evenodd" d="M34.0402 60.4546C34.6894 58.1484 35.0637 55.4354 35.0637 52.5319C35.0637 49.8779 34.751 47.383 34.2014 45.2126C41.5159 46.434 47.091 52.7932 47.091 60.4546H34.0402ZM22.1509 60.4546H8.90918C8.90918 52.7239 14.5856 46.319 21.9978 45.1807C21.4432 47.3586 21.1274 49.8649 21.1274 52.5319C21.1274 55.4354 21.5017 58.1484 22.1509 60.4546Z" fill="#0C1626"/>
<path fill-rule="evenodd" clip-rule="evenodd" d="M37.3545 55.8727L37.904 55.4606C38.9322 54.6895 40.3492 54.7019 41.3636 55.4909L37.3545 55.8727Z" fill="#E6E6E6"/>
<path fill-rule="evenodd" clip-rule="evenodd" d="M22.0823 44.8C20.9368 50.3364 23.0368 60.4546 23.0368 60.4546H19.9823L17.3096 53.5819L18.455 51.8637L17.3096 50.7182L20.9368 44.991C20.9368 44.991 21.5175 44.8103 22.0823 44.8Z" fill="#0C092A"/>
<path fill-rule="evenodd" clip-rule="evenodd" d="M33.9187 44.8C35.0641 50.3364 32.9641 60.4546 32.9641 60.4546H36.0187L38.6914 53.5819L37.546 51.8637L38.6914 50.7182L35.0641 44.991C35.0641 44.991 34.4835 44.8103 33.9187 44.8Z" fill="#0C092A"/>
<path fill-rule="evenodd" clip-rule="evenodd" d="M23.4184 43.5667C22.1255 44.4443 21.3184 45.689 21.3184 47.0696C21.3184 48.4825 22.1637 49.7532 23.5099 50.6336L24.6441 49.7401L25.5184 49.8034L25.3275 49.2018L25.3423 49.1901C24.1777 48.5902 23.4184 47.6065 23.4184 46.4948C23.4184 46.4948 23.4184 46.4948 23.4184 46.4947V43.5667ZM32.582 46.4947C32.582 46.4948 32.582 46.4948 32.582 46.4948C32.582 47.6065 31.8226 48.5902 30.6581 49.1901L30.6729 49.2018L30.482 49.8034L31.3562 49.7401L32.4904 50.6336C33.8367 49.7532 34.682 48.4825 34.682 47.0696C34.682 45.689 33.8749 44.4442 32.582 43.5667V46.4947Z" fill="#0C092A"/>
<path d="M25.3271 35.6365C25.3271 36.662 26.5028 37.3546 27.9999 37.3546C29.497 37.3546 30.6726 36.662 30.6726 35.6365C30.6726 35.4256 30.4913 35.2546 30.2908 35.2546C30.044 35.2546 29.9338 35.4274 29.909 35.6365C29.6718 36.1973 29.0849 36.5368 27.9999 36.591C26.9149 36.5368 26.328 36.1973 26.0908 35.6365C26.0659 35.4274 25.9558 35.2546 25.709 35.2546C25.5085 35.2546 25.3271 35.4256 25.3271 35.6365Z" fill="#0C092A"/>
<path fill-rule="evenodd" clip-rule="evenodd" d="M25.709 31.8184C25.709 32.6618 26.7347 33.3456 27.9999 33.3456C29.2651 33.3456 30.2908 32.6618 30.2908 31.8184" fill="black" fill-opacity="0.16"/>
<ellipse cx="23.0361" cy="28.3818" rx="1.14545" ry="1.14545" fill="#0C092A"/>
<ellipse cx="32.9628" cy="28.3818" rx="1.14545" ry="1.14545" fill="#0C092A"/>
<path d="M20.2927 25.9303C21.0401 24.8786 23.0891 24.2889 24.854 24.7223C25.0588 24.7726 25.2656 24.6474 25.3159 24.4426C25.3662 24.2378 25.2409 24.031 25.0362 23.9807C22.9864 23.4774 20.6138 24.1603 19.6702 25.4879C19.5481 25.6598 19.5884 25.8982 19.7603 26.0203C19.9322 26.1425 20.1705 26.1022 20.2927 25.9303Z" fill="#0C092A"/>
<path d="M35.7063 25.9303C34.9589 24.8786 32.91 24.2889 31.145 24.7223C30.9402 24.7726 30.7334 24.6474 30.6831 24.4426C30.6328 24.2378 30.7581 24.031 30.9629 23.9807C33.0126 23.4774 35.3853 24.1603 36.3288 25.4879C36.4509 25.6598 36.4106 25.8982 36.2387 26.0203C36.0669 26.1425 35.8285 26.1022 35.7063 25.9303Z" fill="#0C092A"/>
<mask id="mask2_199_5855" style="mask-type:alpha" maskUnits="userSpaceOnUse" x="2" y="7" width="52" height="54">
<rect x="2.7998" y="7" width="50.4" height="53.4545" fill="white"/>
</mask>
<g mask="url(#mask2_199_5855)">
<path fill-rule="evenodd" clip-rule="evenodd" d="M28.0963 38.6607C25.8987 38.7329 24.9184 39.7833 24.1801 38.7158C23.626 37.9145 23.8579 36.567 24.3756 35.8088C25.1123 34.7299 26.1117 35.2518 27.2292 35.1287C27.5331 35.0952 27.8383 35.0108 28.0963 34.8728C28.3544 35.0108 28.6596 35.0952 28.9634 35.1287C30.0809 35.2518 31.0803 34.7299 31.8171 35.8088C32.3348 36.567 32.5666 37.9145 32.0125 38.7158C31.2742 39.7833 30.294 38.5885 28.0963 38.6607ZM38.7655 25.7092C38.1118 28.3962 37.8114 31.1375 37.3373 33.8555C37.2385 34.4221 37.1304 34.9867 37.0156 35.5505C36.9915 35.6689 36.9677 36.1085 36.851 36.1642C36.4976 36.333 35.7774 35.4354 35.5849 35.2328C35.1012 34.7238 34.6216 34.2103 34.0326 33.8109C32.8423 33.0039 31.4488 32.5268 29.9988 32.4135C29.3921 32.3661 28.5718 32.4488 28 32.7939C27.4282 32.4488 26.6079 32.3661 26.0011 32.4135C24.5511 32.5268 23.1576 33.0039 21.9673 33.8109C21.3783 34.2103 20.8988 34.7238 20.415 35.2328C20.2225 35.4354 19.5023 36.333 19.1489 36.1642C19.0322 36.1085 19.0084 35.6689 18.9843 35.5505C18.8695 34.9867 18.7614 34.4221 18.6626 33.8555C18.1886 31.1375 17.8882 28.3962 17.2344 25.7092C17.0442 25.7092 16.8773 29.2884 16.8561 29.6218C16.7697 30.9762 16.6688 32.3005 16.7977 33.656C17.02 35.9944 17.2517 38.9266 19.0335 40.7123C20.6435 42.3259 22.981 42.6632 24.9972 43.6817C25.2568 43.8128 25.6011 43.9747 25.9725 44.1074C26.3637 44.4058 27.1395 44.6092 28.0332 44.6092C28.9707 44.6092 29.7784 44.3854 30.1485 44.0628C30.4732 43.9396 30.7716 43.7984 31.0027 43.6817C33.0187 42.663 35.3565 42.3259 36.9664 40.7123C38.7482 38.9266 38.9799 35.9944 39.2022 33.656C39.3311 32.3005 39.2302 30.9762 39.1439 29.6218C39.1226 29.2884 38.9557 25.7092 38.7655 25.7092Z" fill="#0C092A"/>
<mask id="mask3_199_5855" style="mask-type:alpha" maskUnits="userSpaceOnUse" x="16" y="25" width="24" height="20">
<path fill-rule="evenodd" clip-rule="evenodd" d="M28.0963 38.6607C25.8987 38.7329 24.9184 39.7833 24.1801 38.7158C23.626 37.9145 23.8579 36.567 24.3756 35.8088C25.1123 34.7299 26.1117 35.2518 27.2292 35.1287C27.5331 35.0952 27.8383 35.0108 28.0963 34.8728C28.3544 35.0108 28.6596 35.0952 28.9634 35.1287C30.0809 35.2518 31.0803 34.7299 31.8171 35.8088C32.3348 36.567 32.5666 37.9145 32.0125 38.7158C31.2742 39.7833 30.294 38.5885 28.0963 38.6607ZM38.7655 25.7092C38.1118 28.3962 37.8114 31.1375 37.3373 33.8555C37.2385 34.4221 37.1304 34.9867 37.0156 35.5505C36.9915 35.6689 36.9677 36.1085 36.851 36.1642C36.4976 36.333 35.7774 35.4354 35.5849 35.2328C35.1012 34.7238 34.6216 34.2103 34.0326 33.8109C32.8423 33.0039 31.4488 32.5268 29.9988 32.4135C29.3921 32.3661 28.5718 32.4488 28 32.7939C27.4282 32.4488 26.6079 32.3661 26.0011 32.4135C24.5511 32.5268 23.1576 33.0039 21.9673 33.8109C21.3783 34.2103 20.8988 34.7238 20.415 35.2328C20.2225 35.4354 19.5023 36.333 19.1489 36.1642C19.0322 36.1085 19.0084 35.6689 18.9843 35.5505C18.8695 34.9867 18.7614 34.4221 18.6626 33.8555C18.1886 31.1375 17.8882 28.3962 17.2344 25.7092C17.0442 25.7092 16.8773 29.2884 16.8561 29.6218C16.7697 30.9762 16.6688 32.3005 16.7977 33.656C17.02 35.9944 17.2517 38.9266 19.0335 40.7123C20.6435 42.3259 22.981 42.6632 24.9972 43.6817C25.2568 43.8128 25.6011 43.9747 25.9725 44.1074C26.3637 44.4058 27.1395 44.6092 28.0332 44.6092C28.9707 44.6092 29.7784 44.3854 30.1485 44.0628C30.4732 43.9396 30.7716 43.7984 31.0027 43.6817C33.0187 42.663 35.3565 42.3259 36.9664 40.7123C38.7482 38.9266 38.9799 35.9944 39.2022 33.656C39.3311 32.3005 39.2302 30.9762 39.1439 29.6218C39.1226 29.2884 38.9557 25.7092 38.7655 25.7092Z" fill="white"/>
</mask>
<g mask="url(#mask3_199_5855)">
<rect x="11.9639" y="20.7456" width="32.0727" height="29.0182" fill="#0C092A"/>
</g>
<path fill-rule="evenodd" clip-rule="evenodd" d="M20.6033 16.9312C20.6268 16.9208 20.5685 16.9169 20.4285 16.9193C20.5987 16.9189 20.657 16.9229 20.6033 16.9312ZM19.0502 13.9301C19.0498 13.9263 19.0534 13.9589 19.0502 13.9301V13.9301ZM39.601 20.5096C39.5506 19.8764 39.4613 19.247 39.3112 18.6283C39.192 18.1366 39.0291 17.6674 38.8364 17.1982C38.7201 16.9148 38.4484 16.5255 38.4165 16.2197C38.385 15.9185 38.6201 15.5849 38.6702 15.2342C38.7189 14.8929 38.7106 14.5341 38.6406 14.1959C38.4816 13.4279 37.9545 12.7138 37.1406 12.5136C36.9589 12.4688 36.5748 12.524 36.4464 12.4181C36.2992 12.2968 36.1967 11.8834 36.0634 11.7176C35.6834 11.2449 35.0908 10.9405 34.4658 11.0467C34.0055 11.1248 34.2698 11.2199 33.9247 10.9491C33.7329 10.7985 33.5895 10.5685 33.4032 10.4055C33.1231 10.1606 32.8017 9.95094 32.4693 9.77889C31.5993 9.32872 30.6072 9.0015 29.6354 8.842C27.8628 8.55102 25.9709 8.80471 24.2526 9.2657C23.3977 9.49508 22.5369 9.78619 21.7428 10.1712C21.4023 10.3362 21.2058 10.4732 20.8508 10.5164C20.2917 10.5845 19.8182 10.5811 19.2885 10.8182C17.6589 11.5478 16.9248 13.2406 17.559 14.8605C17.6865 15.1863 17.8593 15.4724 18.0974 15.7356C18.3877 16.0564 18.4927 15.9933 18.2427 16.3622C17.8687 16.914 17.5535 17.5023 17.2968 18.1132C16.6231 19.7172 16.5104 21.5237 16.5542 23.2342C16.5696 23.8331 16.5953 24.4393 16.6897 25.0324C16.7305 25.2891 16.7419 25.7718 16.9345 25.9623C17.0322 26.0589 17.1714 26.1128 17.3102 26.0743C17.6366 25.9839 17.5244 25.743 17.5319 25.5195C17.5701 24.3962 17.5186 23.4026 17.7857 22.2929C17.983 21.473 18.3119 20.7284 18.7381 19.9953C19.28 19.0628 19.865 18.2439 20.6103 17.4455C20.7855 17.2578 20.8238 17.1782 21.0587 17.1646C21.2366 17.1543 21.4969 17.2761 21.6699 17.3183C22.0513 17.4113 22.4334 17.5032 22.8217 17.5658C23.5357 17.6808 24.2427 17.6886 24.9631 17.666C26.3809 17.6217 27.8047 17.5222 29.1793 17.1652C30.0922 16.9281 30.9016 16.5026 31.776 16.1906C31.7916 16.1851 32.0108 16.0289 32.0492 16.0353C32.1028 16.0441 32.4266 16.3838 32.4813 16.4266C32.9062 16.7598 33.3722 16.8997 33.8311 17.1578C34.3968 17.4759 33.8489 17.0206 34.161 17.4171C34.2519 17.5326 34.2985 17.7467 34.3715 17.8775C34.6036 18.2942 34.9265 18.6605 35.3128 18.9511C35.6861 19.2319 36.247 19.3675 36.4373 19.7329C36.5841 20.0149 36.6335 20.3981 36.752 20.6991C37.0627 21.4885 37.473 22.2247 37.8833 22.9683C38.2138 23.5675 38.5753 24.091 38.6121 24.7757C38.6249 25.0141 38.3981 26.4438 38.9505 26.009C39.0324 25.9445 39.209 25.2156 39.2453 25.0919C39.3925 24.5893 39.4448 24.0646 39.5115 23.5482C39.6441 22.5212 39.6876 21.544 39.601 20.5096Z" fill="#28354B"/>
<mask id="mask4_199_5855" style="mask-type:alpha" maskUnits="userSpaceOnUse" x="16" y="8" width="24" height="19">
<path fill-rule="evenodd" clip-rule="evenodd" d="M20.6033 16.9312C20.6268 16.9208 20.5685 16.9169 20.4285 16.9193C20.5987 16.9189 20.657 16.9229 20.6033 16.9312ZM19.0502 13.9301C19.0498 13.9263 19.0534 13.9589 19.0502 13.9301V13.9301ZM39.601 20.5096C39.5506 19.8764 39.4613 19.247 39.3112 18.6283C39.192 18.1366 39.0291 17.6674 38.8364 17.1982C38.7201 16.9148 38.4484 16.5255 38.4165 16.2197C38.385 15.9185 38.6201 15.5849 38.6702 15.2342C38.7189 14.8929 38.7106 14.5341 38.6406 14.1959C38.4816 13.4279 37.9545 12.7138 37.1406 12.5136C36.9589 12.4688 36.5748 12.524 36.4464 12.4181C36.2992 12.2968 36.1967 11.8834 36.0634 11.7176C35.6834 11.2449 35.0908 10.9405 34.4658 11.0467C34.0055 11.1248 34.2698 11.2199 33.9247 10.9491C33.7329 10.7985 33.5895 10.5685 33.4032 10.4055C33.1231 10.1606 32.8017 9.95094 32.4693 9.77889C31.5993 9.32872 30.6072 9.0015 29.6354 8.842C27.8628 8.55102 25.9709 8.80471 24.2526 9.2657C23.3977 9.49508 22.5369 9.78619 21.7428 10.1712C21.4023 10.3362 21.2058 10.4732 20.8508 10.5164C20.2917 10.5845 19.8182 10.5811 19.2885 10.8182C17.6589 11.5478 16.9248 13.2406 17.559 14.8605C17.6865 15.1863 17.8593 15.4724 18.0974 15.7356C18.3877 16.0564 18.4927 15.9933 18.2427 16.3622C17.8687 16.914 17.5535 17.5023 17.2968 18.1132C16.6231 19.7172 16.5104 21.5237 16.5542 23.2342C16.5696 23.8331 16.5953 24.4393 16.6897 25.0324C16.7305 25.2891 16.7419 25.7718 16.9345 25.9623C17.0322 26.0589 17.1714 26.1128 17.3102 26.0743C17.6366 25.9839 17.5244 25.743 17.5319 25.5195C17.5701 24.3962 17.5186 23.4026 17.7857 22.2929C17.983 21.473 18.3119 20.7284 18.7381 19.9953C19.28 19.0628 19.865 18.2439 20.6103 17.4455C20.7855 17.2578 20.8238 17.1782 21.0587 17.1646C21.2366 17.1543 21.4969 17.2761 21.6699 17.3183C22.0513 17.4113 22.4334 17.5032 22.8217 17.5658C23.5357 17.6808 24.2427 17.6886 24.9631 17.666C26.3809 17.6217 27.8047 17.5222 29.1793 17.1652C30.0922 16.9281 30.9016 16.5026 31.776 16.1906C31.7916 16.1851 32.0108 16.0289 32.0492 16.0353C32.1028 16.0441 32.4266 16.3838 32.4813 16.4266C32.9062 16.7598 33.3722 16.8997 33.8311 17.1578C34.3968 17.4759 33.8489 17.0206 34.161 17.4171C34.2519 17.5326 34.2985 17.7467 34.3715 17.8775C34.6036 18.2942 34.9265 18.6605 35.3128 18.9511C35.6861 19.2319 36.247 19.3675 36.4373 19.7329C36.5841 20.0149 36.6335 20.3981 36.752 20.6991C37.0627 21.4885 37.473 22.2247 37.8833 22.9683C38.2138 23.5675 38.5753 24.091 38.6121 24.7757C38.6249 25.0141 38.3981 26.4438 38.9505 26.009C39.0324 25.9445 39.209 25.2156 39.2453 25.0919C39.3925 24.5893 39.4448 24.0646 39.5115 23.5482C39.6441 22.5212 39.6876 21.544 39.601 20.5096Z" fill="white"/>
</mask>
<g mask="url(#mask4_199_5855)">
<rect x="2.80078" y="7" width="50.4" height="53.4545" fill="#0C092A"/>
</g>
</g>
</g>
<defs>
<clipPath id="clip0_199_5855">
<path d="M0 28C0 12.536 12.536 0 28 0C43.464 0 56 12.536 56 28C56 43.464 43.464 56 28 56C12.536 56 0 43.464 0 28Z" fill="white"/>
</clipPath>
</defs>
</svg>
