<svg width="56" height="56" viewBox="0 0 56 56" fill="none" xmlns="http://www.w3.org/2000/svg">
<circle cx="28" cy="28" r="28" fill="#FFD6DD"/>
<mask id="mask0_199_5856" style="mask-type:alpha" maskUnits="userSpaceOnUse" x="0" y="0" width="56" height="56">
<circle cx="28" cy="28" r="28" fill="#C4C4C4"/>
</mask>
<g mask="url(#mask0_199_5856)">
<path fill-rule="evenodd" clip-rule="evenodd" d="M28.0002 14.4963C22.3769 14.4963 17.8184 19.0549 17.8184 24.6782V25.7145C16.7865 25.8876 16.0002 26.785 16.0002 27.8661V30.3596C16.0002 31.4626 16.8186 32.3744 17.8813 32.5209C18.2787 36.0916 20.5226 39.1049 23.6365 40.5842V43.9313C15.9353 44.3459 9.81836 50.7218 9.81836 58.5264H46.182C46.182 50.7218 40.065 44.3459 32.3638 43.9313V40.5842C35.4777 39.1049 37.7217 36.0916 38.119 32.5209C39.1817 32.3744 40.0002 31.4626 40.0002 30.3596V27.8661C40.0002 26.785 39.2139 25.8876 38.182 25.7145V24.6782C38.182 19.0549 33.6234 14.4963 28.0002 14.4963Z" fill="#D0C6AC"/>
<mask id="mask1_199_5856" style="mask-type:alpha" maskUnits="userSpaceOnUse" x="9" y="14" width="38" height="45">
<path fill-rule="evenodd" clip-rule="evenodd" d="M28.0002 14.4963C22.3769 14.4963 17.8184 19.0549 17.8184 24.6782V25.7145C16.7865 25.8876 16.0002 26.785 16.0002 27.8661V30.3596C16.0002 31.4626 16.8186 32.3744 17.8813 32.5209C18.2787 36.0916 20.5226 39.1049 23.6365 40.5842V43.9313C15.9353 44.3459 9.81836 50.7218 9.81836 58.5264H46.182C46.182 50.7218 40.065 44.3459 32.3638 43.9313V40.5842C35.4777 39.1049 37.7217 36.0916 38.119 32.5209C39.1817 32.3744 40.0002 31.4626 40.0002 30.3596V27.8661C40.0002 26.785 39.2139 25.8876 38.182 25.7145V24.6782C38.182 19.0549 33.6234 14.4963 28.0002 14.4963Z" fill="white"/>
</mask>
<g mask="url(#mask1_199_5856)">
<rect x="4" y="14.4963" width="48" height="44.0301" fill="#D08B5B"/>
<path fill-rule="evenodd" clip-rule="evenodd" d="M17.8184 31.3821V32.8257C17.8184 38.449 22.3769 43.0075 28.0002 43.0075C33.6234 43.0075 38.182 38.449 38.182 32.8257V31.3821C38.182 37.0054 33.6234 41.5639 28.0002 41.5639C22.3769 41.5639 17.8184 37.0053 17.8184 31.3821Z" fill="black" fill-opacity="0.1"/>
</g>
<path fill-rule="evenodd" clip-rule="evenodd" d="M28.0911 48.0291C31.455 48.0291 34.182 46.2937 34.182 44.153C34.182 44.1524 34.182 44.1518 34.182 44.1512C41.0054 45.3806 46.182 51.349 46.182 58.5264H9.81836C9.81836 51.2853 15.0873 45.2748 22.0004 44.1196C22.0003 44.1308 22.0002 44.1419 22.0002 44.153C22.0002 46.2937 24.7272 48.0291 28.0911 48.0291Z" fill="#E6E6E6"/>
<mask id="mask2_199_5856" style="mask-type:alpha" maskUnits="userSpaceOnUse" x="9" y="44" width="38" height="15">
<path fill-rule="evenodd" clip-rule="evenodd" d="M28.0911 48.0291C31.455 48.0291 34.182 46.2937 34.182 44.153C34.182 44.1524 34.182 44.1518 34.182 44.1512C41.0054 45.3806 46.182 51.349 46.182 58.5264H9.81836C9.81836 51.2853 15.0873 45.2748 22.0004 44.1196C22.0003 44.1308 22.0002 44.1419 22.0002 44.153C22.0002 46.2937 24.7272 48.0291 28.0911 48.0291Z" fill="white"/>
</mask>
<g mask="url(#mask2_199_5856)">
<rect x="4" y="38.6768" width="48" height="19.8496" fill="#555FA8"/>
<g opacity="0.6">
<ellipse cx="28.0911" cy="44.4238" rx="7.20638" ry="4.85663" fill="black" fill-opacity="0.16"/>
</g>
</g>
<path d="M25.4541 35.0677C25.4541 36.037 26.5738 36.6918 27.9996 36.6918C29.4253 36.6918 30.545 36.037 30.545 35.0677C30.545 34.8684 30.3723 34.7068 30.1814 34.7068C29.9463 34.7068 29.8414 34.8701 29.8177 35.0677C29.5918 35.5978 29.0329 35.9188 27.9996 35.9699C26.9662 35.9188 26.4073 35.5978 26.1814 35.0677C26.1577 34.8701 26.0528 34.7068 25.8177 34.7068C25.6268 34.7068 25.4541 34.8684 25.4541 35.0677Z" fill="black" fill-opacity="0.6"/>
<path fill-rule="evenodd" clip-rule="evenodd" d="M25.8184 31.4585C25.8184 32.2558 26.7952 32.9021 28.0002 32.9021C29.2052 32.9021 30.182 32.2558 30.182 31.4585" fill="black" fill-opacity="0.16"/>
<ellipse cx="23.2725" cy="28.2104" rx="1.09091" ry="1.08271" fill="black" fill-opacity="0.6"/>
<ellipse cx="32.7276" cy="28.2104" rx="1.09091" ry="1.08271" fill="black" fill-opacity="0.6"/>
<path d="M20.6601 25.8933C21.3719 24.8992 23.3233 24.3418 25.0042 24.7515C25.1993 24.799 25.3962 24.6806 25.4441 24.4871C25.492 24.2935 25.3727 24.098 25.1777 24.0505C23.2255 23.5747 20.9659 24.2202 20.0673 25.4751C19.9509 25.6376 19.9893 25.8629 20.153 25.9784C20.3167 26.0938 20.5437 26.0557 20.6601 25.8933Z" fill="black" fill-opacity="0.6"/>
<path d="M35.3399 25.8933C34.6281 24.8992 32.6767 24.3418 30.9958 24.7515C30.8008 24.799 30.6038 24.6806 30.5559 24.4871C30.508 24.2935 30.6273 24.098 30.8223 24.0505C32.7745 23.5747 35.0341 24.2202 35.9327 25.4751C36.0491 25.6376 36.0107 25.8629 35.847 25.9784C35.6833 26.0938 35.4563 26.0557 35.3399 25.8933Z" fill="black" fill-opacity="0.6"/>
<mask id="mask3_199_5856" style="mask-type:alpha" maskUnits="userSpaceOnUse" x="4" y="8" width="48" height="51">
<rect x="4" y="8" width="48" height="50.5263" fill="white"/>
</mask>
<g mask="url(#mask3_199_5856)">
<path fill-rule="evenodd" clip-rule="evenodd" d="M17.9996 25.6842C17.9401 25.9048 17.699 25.9528 17.6359 25.6842C17.5052 23.8259 17.6359 14.4467 27.9996 14.3158C38.3632 14.1848 38.494 23.8259 38.3632 25.6842C38.3001 25.9528 38.0591 25.9048 37.9996 25.6842C38.0837 25.4037 37.4003 20.4959 35.6359 19.188C35.3161 18.9672 34.3183 18.7567 32.974 18.5995L33.6361 17.0225L32.3666 18.5345C31.088 18.4093 29.5737 18.3311 28.0564 18.33C24.5465 18.3275 21.0211 18.7338 20.3632 19.188C18.5988 20.4959 17.9154 25.4037 17.9996 25.6842Z" fill="#28354B"/>
<mask id="mask4_199_5856" style="mask-type:alpha" maskUnits="userSpaceOnUse" x="17" y="14" width="22" height="12">
<path fill-rule="evenodd" clip-rule="evenodd" d="M17.9996 25.6842C17.9401 25.9048 17.699 25.9528 17.6359 25.6842C17.5052 23.8259 17.6359 14.4467 27.9996 14.3158C38.3632 14.1848 38.494 23.8259 38.3632 25.6842C38.3001 25.9528 38.0591 25.9048 37.9996 25.6842C38.0837 25.4037 37.4003 20.4959 35.6359 19.188C35.3161 18.9672 34.3183 18.7567 32.974 18.5995L33.6361 17.0225L32.3666 18.5345C31.088 18.4093 29.5737 18.3311 28.0564 18.33C24.5465 18.3275 21.0211 18.7338 20.3632 19.188C18.5988 20.4959 17.9154 25.4037 17.9996 25.6842Z" fill="white"/>
</mask>
<g mask="url(#mask4_199_5856)">
<rect x="4" y="8" width="48" height="50.5263" fill="#2C1B18"/>
</g>
<g filter="url(#filter0_d_199_5856)">
<path fill-rule="evenodd" clip-rule="evenodd" d="M24.9536 26.0948C25.3848 26.0989 25.5886 26.17 25.6621 26.6163C25.7365 27.0684 25.6641 27.5767 25.5783 28.022C25.4473 28.7019 25.2295 29.3681 24.7224 29.8651C24.4553 30.1268 24.1295 30.3354 23.7829 30.4778C23.5989 30.5535 23.4046 30.6081 23.2103 30.6495C23.1535 30.6616 22.6687 30.7279 22.966 30.6942C22.2721 30.7729 21.5192 30.7697 20.9396 30.3314C20.2973 29.8455 19.8574 29.0767 19.664 28.311C19.5508 27.8629 19.313 26.7913 19.7475 26.433C20.2452 26.0225 24.9536 26.0948 24.9536 26.0948ZM20.5844 24.8705C19.5952 24.9043 18.9351 25.0769 18.4472 26.0577C17.5531 27.8551 19.0834 30.5508 20.7906 31.2854C22.7864 32.1443 25.0161 31.1938 26.0712 29.4748C26.63 28.5647 26.9125 27.1862 26.8943 26.1361C26.8711 24.7958 25.9279 24.7587 24.8191 24.7881L20.5844 24.8705Z" fill="#44509F"/>
<path fill-rule="evenodd" clip-rule="evenodd" d="M31.0324 26.0943C30.6012 26.0984 30.3974 26.1695 30.3239 26.6158C30.2495 27.0679 30.3219 27.5762 30.4076 28.0215C30.5387 28.7014 30.7565 29.3676 31.2636 29.8645C31.5307 30.1262 31.8565 30.3348 32.2031 30.4773C32.3871 30.5529 32.5814 30.6076 32.7757 30.649C32.8325 30.6611 33.3173 30.7274 33.02 30.6937C33.7139 30.7723 34.4668 30.7692 35.0464 30.3308C35.6887 29.845 36.1286 29.0763 36.322 28.3105C36.4352 27.8624 36.6729 26.7908 36.2385 26.4325C35.7408 26.022 31.0324 26.0943 31.0324 26.0943ZM35.4016 24.87C36.3908 24.9038 37.0509 25.0764 37.5388 26.0571C38.4329 27.8546 36.9026 30.5503 35.1954 31.2849C33.1995 32.1438 30.9699 31.1933 29.9147 29.4743C29.356 28.5641 29.0735 27.1857 29.0916 26.1356C29.1149 24.7953 30.0581 24.7581 31.1669 24.7877L35.4016 24.87Z" fill="#44509F"/>
<path fill-rule="evenodd" clip-rule="evenodd" d="M18.9444 25.6711C18.324 25.7057 17.6151 25.714 17.034 25.9801C16.4186 26.262 16.3235 26.9003 17.0993 26.9882C17.4487 27.0279 17.7985 26.9624 18.1426 26.9014C18.4244 26.8515 18.8071 26.8677 19.0734 26.7608C19.5696 26.5617 19.5377 25.6374 18.9444 25.6711Z" fill="#44509F"/>
<path fill-rule="evenodd" clip-rule="evenodd" d="M37.0427 25.6711C37.6631 25.7057 38.372 25.714 38.9531 25.9801C39.5685 26.262 39.6636 26.9003 38.8878 26.9882C38.5384 27.0279 38.1885 26.9624 37.8445 26.9014C37.5627 26.8515 37.18 26.8677 36.9137 26.7608C36.4175 26.5617 36.4494 25.6374 37.0427 25.6711Z" fill="#44509F"/>
<path fill-rule="evenodd" clip-rule="evenodd" d="M29.8372 26.0475C29.4834 25.6325 28.5612 25.3928 27.9794 25.3928C27.3976 25.3928 26.5024 25.6325 26.1486 26.0475C25.9702 26.2568 25.9641 26.5368 26.2734 26.6679C26.6585 26.8314 27.0023 26.535 27.3105 26.38C27.7048 26.1818 28.3104 26.2035 28.6753 26.38C28.9859 26.5303 29.3273 26.8314 29.7125 26.6679C30.0217 26.5368 30.0157 26.2568 29.8372 26.0475Z" fill="#44509F"/>
</g>
</g>
</g>
<defs>
<filter id="filter0_d_199_5856" x="16.5449" y="24.782" width="22.8975" height="8.82471" filterUnits="userSpaceOnUse" color-interpolation-filters="sRGB">
<feFlood flood-opacity="0" result="BackgroundImageFix"/>
<feColorMatrix in="SourceAlpha" type="matrix" values="0 0 0 0 0 0 0 0 0 0 0 0 0 0 0 0 0 0 127 0" result="hardAlpha"/>
<feOffset dy="2"/>
<feColorMatrix type="matrix" values="0 0 0 0 0 0 0 0 0 0 0 0 0 0 0 0 0 0 0.1 0"/>
<feBlend mode="normal" in2="BackgroundImageFix" result="effect1_dropShadow_199_5856"/>
<feBlend mode="normal" in="SourceGraphic" in2="effect1_dropShadow_199_5856" result="shape"/>
</filter>
</defs>
</svg>
