<svg width="56" height="56" viewBox="0 0 56 56" fill="none" xmlns="http://www.w3.org/2000/svg">
<circle cx="28" cy="28" r="28" fill="#C9F2E9"/>
<mask id="mask0_199_5857" style="mask-type:alpha" maskUnits="userSpaceOnUse" x="0" y="0" width="56" height="56">
<circle cx="28" cy="28" r="28" fill="#C4C4C4"/>
</mask>
<g mask="url(#mask0_199_5857)">
<path fill-rule="evenodd" clip-rule="evenodd" d="M28.0002 14.4963C22.3769 14.4963 17.8184 19.0549 17.8184 24.6782V25.7145C16.7865 25.8876 16.0002 26.785 16.0002 27.8661V30.3596C16.0002 31.4626 16.8186 32.3744 17.8813 32.5209C18.2787 36.0916 20.5226 39.1049 23.6365 40.5842V43.9313C15.9353 44.3459 9.81836 50.7218 9.81836 58.5264H46.182C46.182 50.7218 40.065 44.3459 32.3638 43.9313V40.5842C35.4777 39.1049 37.7217 36.0916 38.119 32.5209C39.1817 32.3744 40.0002 31.4626 40.0002 30.3596V27.8661C40.0002 26.785 39.2139 25.8876 38.182 25.7145V24.6782C38.182 19.0549 33.6234 14.4963 28.0002 14.4963Z" fill="#D0C6AC"/>
<mask id="mask1_199_5857" style="mask-type:alpha" maskUnits="userSpaceOnUse" x="9" y="14" width="38" height="45">
<path fill-rule="evenodd" clip-rule="evenodd" d="M28.0002 14.4963C22.3769 14.4963 17.8184 19.0549 17.8184 24.6782V25.7145C16.7865 25.8876 16.0002 26.785 16.0002 27.8661V30.3596C16.0002 31.4626 16.8186 32.3744 17.8813 32.5209C18.2787 36.0916 20.5226 39.1049 23.6365 40.5842V43.9313C15.9353 44.3459 9.81836 50.7218 9.81836 58.5264H46.182C46.182 50.7218 40.065 44.3459 32.3638 43.9313V40.5842C35.4777 39.1049 37.7217 36.0916 38.119 32.5209C39.1817 32.3744 40.0002 31.4626 40.0002 30.3596V27.8661C40.0002 26.785 39.2139 25.8876 38.182 25.7145V24.6782C38.182 19.0549 33.6234 14.4963 28.0002 14.4963Z" fill="white"/>
</mask>
<g mask="url(#mask1_199_5857)">
<rect x="4" y="14.4963" width="48" height="44.0301" fill="#C9824B"/>
<path fill-rule="evenodd" clip-rule="evenodd" d="M17.8184 31.3821V32.8257C17.8184 38.449 22.3769 43.0075 28.0002 43.0075C33.6234 43.0075 38.182 38.449 38.182 32.8257V31.3821C38.182 37.0054 33.6234 41.5639 28.0002 41.5639C22.3769 41.5639 17.8184 37.0053 17.8184 31.3821Z" fill="black" fill-opacity="0.1"/>
</g>
<path fill-rule="evenodd" clip-rule="evenodd" d="M28.0911 48.0291C31.455 48.0291 34.182 46.2937 34.182 44.153C34.182 44.1524 34.182 44.1518 34.182 44.1512C41.0054 45.3806 46.182 51.349 46.182 58.5264H9.81836C9.81836 51.2853 15.0873 45.2748 22.0004 44.1196C22.0003 44.1308 22.0002 44.1419 22.0002 44.153C22.0002 46.2937 24.7272 48.0291 28.0911 48.0291Z" fill="#E6E6E6"/>
<mask id="mask2_199_5857" style="mask-type:alpha" maskUnits="userSpaceOnUse" x="9" y="44" width="38" height="15">
<path fill-rule="evenodd" clip-rule="evenodd" d="M28.0911 48.0291C31.455 48.0291 34.182 46.2937 34.182 44.153C34.182 44.1524 34.182 44.1518 34.182 44.1512C41.0054 45.3806 46.182 51.349 46.182 58.5264H9.81836C9.81836 51.2853 15.0873 45.2748 22.0004 44.1196C22.0003 44.1308 22.0002 44.1419 22.0002 44.153C22.0002 46.2937 24.7272 48.0291 28.0911 48.0291Z" fill="white"/>
</mask>
<g mask="url(#mask2_199_5857)">
<rect x="4" y="38.6768" width="48" height="19.8496" fill="#C2FF5F"/>
<g opacity="0.6">
<ellipse cx="28.0911" cy="44.4238" rx="7.20638" ry="4.85663" fill="black" fill-opacity="0.16"/>
</g>
</g>
<path d="M25.4541 35.0677C25.4541 36.037 26.5738 36.6918 27.9996 36.6918C29.4253 36.6918 30.545 36.037 30.545 35.0677C30.545 34.8684 30.3723 34.7068 30.1814 34.7068C29.9463 34.7068 29.8414 34.8701 29.8177 35.0677C29.5918 35.5978 29.0329 35.9188 27.9996 35.9699C26.9662 35.9188 26.4073 35.5978 26.1814 35.0677C26.1577 34.8701 26.0528 34.7068 25.8177 34.7068C25.6268 34.7068 25.4541 34.8684 25.4541 35.0677Z" fill="#0C092A"/>
<path fill-rule="evenodd" clip-rule="evenodd" d="M25.8184 31.4585C25.8184 32.2558 26.7952 32.9021 28.0002 32.9021C29.2052 32.9021 30.182 32.2558 30.182 31.4585" fill="black" fill-opacity="0.16"/>
<ellipse cx="23.2725" cy="28.2104" rx="1.09091" ry="1.08271" fill="#0C092A"/>
<ellipse cx="32.7276" cy="28.2104" rx="1.09091" ry="1.08271" fill="#0C092A"/>
<path d="M20.7229 25.8876C20.9948 24.1691 23.2834 22.9969 24.9389 23.7534C25.1213 23.8368 25.3373 23.7576 25.4213 23.5765C25.5053 23.3955 25.4255 23.1811 25.2431 23.0978C23.1544 22.1433 20.352 23.5786 20.0045 25.7756C19.9733 25.9725 20.1089 26.1572 20.3073 26.1882C20.5057 26.2191 20.6918 26.0845 20.7229 25.8876Z" fill="#0C092A"/>
<path d="M35.2771 25.8876C35.0052 24.1691 32.7166 22.9969 31.0611 23.7534C30.8787 23.8368 30.6627 23.7576 30.5787 23.5765C30.4947 23.3955 30.5745 23.1811 30.757 23.0978C32.8456 22.1433 35.648 23.5786 35.9955 25.7756C36.0267 25.9725 35.8911 26.1572 35.6927 26.1882C35.4943 26.2191 35.3082 26.0845 35.2771 25.8876Z" fill="#0C092A"/>
<mask id="mask3_199_5857" style="mask-type:alpha" maskUnits="userSpaceOnUse" x="4" y="8" width="48" height="51">
<rect x="4" y="8" width="48" height="50.5263" fill="white"/>
</mask>
<g mask="url(#mask3_199_5857)">
<path fill-rule="evenodd" clip-rule="evenodd" d="M27.9995 33.0714C27.5448 32.4695 25.7691 32.2146 24.4946 32.4446C22.7395 32.7616 21.9956 34.6647 22.2208 35.0097C22.3611 35.2246 22.6721 35.1527 22.9953 35.078C23.1433 35.0438 23.2939 35.009 23.4319 35.0008C23.702 34.9849 24.0391 35.0402 24.422 35.1031C25.3277 35.2518 26.4894 35.4425 27.627 34.8311C27.7746 34.7518 27.9011 34.6361 27.9995 34.4973C28.0978 34.6361 28.2243 34.7518 28.3719 34.8311C29.5095 35.4425 30.6712 35.2518 31.5769 35.1031C31.9597 35.0402 32.2969 34.9849 32.567 35.0008C32.705 35.009 32.8556 35.0438 33.0036 35.078C33.3268 35.1527 33.6378 35.2246 33.7781 35.0097C34.0033 34.6647 33.2594 32.7616 31.5042 32.4446C30.2298 32.2146 28.4542 32.4695 27.9995 33.0714Z" fill="#0C092A"/>
<mask id="mask4_199_5857" style="mask-type:alpha" maskUnits="userSpaceOnUse" x="22" y="32" width="12" height="4">
<path fill-rule="evenodd" clip-rule="evenodd" d="M27.9995 33.0714C27.5448 32.4695 25.7691 32.2146 24.4946 32.4446C22.7395 32.7616 21.9956 34.6647 22.2208 35.0097C22.3611 35.2246 22.6721 35.1527 22.9953 35.078C23.1433 35.0438 23.2939 35.009 23.4319 35.0008C23.702 34.9849 24.0391 35.0402 24.422 35.1031C25.3277 35.2518 26.4894 35.4425 27.627 34.8311C27.7746 34.7518 27.9011 34.6361 27.9995 34.4973C28.0978 34.6361 28.2243 34.7518 28.3719 34.8311C29.5095 35.4425 30.6712 35.2518 31.5769 35.1031C31.9597 35.0402 32.2969 34.9849 32.567 35.0008C32.705 35.009 32.8556 35.0438 33.0036 35.078C33.3268 35.1527 33.6378 35.2246 33.7781 35.0097C34.0033 34.6647 33.2594 32.7616 31.5042 32.4446C30.2298 32.2146 28.4542 32.4695 27.9995 33.0714Z" fill="white"/>
</mask>
<g mask="url(#mask4_199_5857)">
<rect x="12.7275" y="20.9924" width="30.5455" height="27.4286" fill="#0C092A"/>
</g>
<path fill-rule="evenodd" clip-rule="evenodd" d="M37.9471 18.1275C38.1092 18.7135 38.3402 20.2839 37.9339 20.8041C37.7982 20.9777 36.8719 20.4903 36.4856 20.2785C36.2596 20.1546 36.0464 20.0366 35.8434 19.9243C33.1315 18.4236 32.2551 17.9386 27.4991 18.0073C22.3872 18.0812 18.8849 20.4582 18.6879 20.7014C18.5508 20.8706 18.3759 21.3222 18.232 22.5804C18.1864 22.9787 18.1737 23.4771 18.1611 23.9721C18.1338 25.0409 18.1069 26.0943 17.7509 26.0924C17.3075 26.0901 17.211 21.8003 17.4024 20.0985C17.4096 20.0348 17.4217 19.959 17.4348 19.8772C17.4754 19.6233 17.5251 19.3126 17.4631 19.1348C17.4351 19.0547 17.3648 19.006 17.2927 18.956C17.1799 18.8778 17.0627 18.7965 17.0968 18.5879C17.1353 18.3523 17.2953 18.3301 17.4538 18.308C17.5573 18.2936 17.6602 18.2793 17.7283 18.2057C17.9334 17.984 17.8107 17.8687 17.6705 17.737C17.5877 17.6592 17.4987 17.5756 17.4677 17.4611C17.3524 17.035 17.6538 16.9026 17.9563 16.7699C17.9793 16.7597 18.0024 16.7496 18.0253 16.7393C18.1502 16.6834 18.2258 16.6642 18.2837 16.6494C18.3915 16.622 18.4377 16.6103 18.6265 16.4062C18.239 16.1243 18.0988 15.7401 18.6294 15.5341C18.7311 15.4946 18.9061 15.4965 19.0838 15.4984C19.3003 15.5007 19.5208 15.5031 19.6177 15.4309C19.6447 15.4108 19.6621 15.3351 19.6776 15.2677C19.6886 15.22 19.6986 15.1765 19.7104 15.1598C19.9558 14.8113 19.9349 14.5466 19.9065 14.1873C19.9023 14.1339 19.8979 14.0784 19.8942 14.0202C19.8706 13.6524 19.8738 13.3148 20.3175 13.278C20.5002 13.2629 20.6618 13.3485 20.8212 13.4329C20.92 13.4853 21.018 13.5372 21.1196 13.5643C21.2786 13.6067 21.3194 13.6429 21.3597 13.6423C21.394 13.6419 21.4279 13.6148 21.5339 13.5425C21.7498 13.3949 21.7721 13.1727 21.7947 12.9487C21.8145 12.7526 21.8344 12.5552 21.9842 12.4051C22.2706 12.118 22.4929 12.2913 22.7106 12.461C22.8276 12.5522 22.9433 12.6424 23.067 12.6595C23.5298 12.7235 23.6241 12.4676 23.7255 12.1922C23.7924 12.0108 23.8623 11.8209 24.0428 11.7083C24.3754 11.5009 24.5241 11.6997 24.6672 11.8911C24.7579 12.0124 24.8463 12.1306 24.9779 12.1409C25.1604 12.1551 25.4336 11.9436 25.6758 11.756C25.8239 11.6413 25.9604 11.5356 26.0576 11.4958C26.4701 11.3269 26.7697 11.5074 27.073 11.6901C27.3289 11.8443 27.5875 12.0001 27.9188 11.949C27.973 11.9406 28.023 11.9324 28.0698 11.9247C28.4769 11.858 28.6348 11.8322 29.0601 12.0982C29.3674 12.2905 29.5182 12.2626 29.7397 12.2216C29.8499 12.2012 29.9775 12.1776 30.1506 12.1762C30.3526 12.1747 30.5117 12.2659 30.6649 12.3538C30.791 12.4261 30.9132 12.4962 31.0522 12.5106C31.1292 12.5186 31.2044 12.4827 31.2811 12.4462C31.3576 12.4098 31.4354 12.3727 31.5177 12.3777C31.8499 12.3977 32.0065 12.6471 32.164 12.898C32.2854 13.0916 32.4075 13.286 32.6111 13.3765C32.9056 13.5075 33.2358 13.4214 33.5515 13.339C33.6937 13.3019 33.833 13.2655 33.9647 13.2502C34.6847 13.1663 34.5606 13.6053 34.4283 14.0729C34.3705 14.2773 34.3112 14.4871 34.32 14.6612C34.5288 14.7095 34.7391 14.6336 34.9492 14.5578C35.1478 14.4862 35.3462 14.4146 35.5427 14.4483C36.1605 14.5541 35.9524 15.174 35.8047 15.614C35.8002 15.6274 35.7958 15.6406 35.7914 15.6536C35.9069 15.6516 36.0709 15.6168 36.2554 15.5777C36.7759 15.4673 37.4588 15.3224 37.6699 15.7813C37.7571 15.971 37.6724 16.1982 37.59 16.4196C37.5331 16.5724 37.4772 16.7224 37.4795 16.8554C37.4842 17.1309 37.6087 17.3779 37.7333 17.6253C37.8162 17.7897 37.8991 17.9542 37.9471 18.1275ZM37.7018 21.2825C37.7481 21.3144 37.7794 21.336 37.7874 21.3404C38.1069 21.5188 38.3598 23.3072 38.3721 23.9911C38.3797 24.413 38.3866 26.0223 37.9369 25.8832C37.8 25.8408 37.591 24.9889 37.5613 24.4903C37.5316 23.9916 37.2462 22.2952 36.8083 21.5147C36.7844 21.4721 36.7498 21.4218 36.7127 21.3678C36.5947 21.1959 36.4513 20.9872 36.5455 20.8723C36.6768 20.7124 36.8049 20.7685 36.9564 20.835C36.9821 20.8463 37.0085 20.8579 37.0356 20.8687C37.1935 20.9318 37.5394 21.1704 37.7018 21.2825Z" fill="#2E3257"/>
<mask id="mask5_199_5857" style="mask-type:alpha" maskUnits="userSpaceOnUse" x="17" y="11" width="22" height="16">
<path fill-rule="evenodd" clip-rule="evenodd" d="M37.9471 18.1275C38.1092 18.7135 38.3402 20.2839 37.9339 20.8041C37.7982 20.9777 36.8719 20.4903 36.4856 20.2785C36.2596 20.1546 36.0464 20.0366 35.8434 19.9243C33.1315 18.4236 32.2551 17.9386 27.4991 18.0073C22.3872 18.0812 18.8849 20.4582 18.6879 20.7014C18.5508 20.8706 18.3759 21.3222 18.232 22.5804C18.1864 22.9787 18.1737 23.4771 18.1611 23.9721C18.1338 25.0409 18.1069 26.0943 17.7509 26.0924C17.3075 26.0901 17.211 21.8003 17.4024 20.0985C17.4096 20.0348 17.4217 19.959 17.4348 19.8772C17.4754 19.6233 17.5251 19.3126 17.4631 19.1348C17.4351 19.0547 17.3648 19.006 17.2927 18.956C17.1799 18.8778 17.0627 18.7965 17.0968 18.5879C17.1353 18.3523 17.2953 18.3301 17.4538 18.308C17.5573 18.2936 17.6602 18.2793 17.7283 18.2057C17.9334 17.984 17.8107 17.8687 17.6705 17.737C17.5877 17.6592 17.4987 17.5756 17.4677 17.4611C17.3524 17.035 17.6538 16.9026 17.9563 16.7699C17.9793 16.7597 18.0024 16.7496 18.0253 16.7393C18.1502 16.6834 18.2258 16.6642 18.2837 16.6494C18.3915 16.622 18.4377 16.6103 18.6265 16.4062C18.239 16.1243 18.0988 15.7401 18.6294 15.5341C18.7311 15.4946 18.9061 15.4965 19.0838 15.4984C19.3003 15.5007 19.5208 15.5031 19.6177 15.4309C19.6447 15.4108 19.6621 15.3351 19.6776 15.2677C19.6886 15.22 19.6986 15.1765 19.7104 15.1598C19.9558 14.8113 19.9349 14.5466 19.9065 14.1873C19.9023 14.1339 19.8979 14.0784 19.8942 14.0202C19.8706 13.6524 19.8738 13.3148 20.3175 13.278C20.5002 13.2629 20.6618 13.3485 20.8212 13.4329C20.92 13.4853 21.018 13.5372 21.1196 13.5643C21.2786 13.6067 21.3194 13.6429 21.3597 13.6423C21.394 13.6419 21.4279 13.6148 21.5339 13.5425C21.7498 13.3949 21.7721 13.1727 21.7947 12.9487C21.8145 12.7526 21.8344 12.5552 21.9842 12.4051C22.2706 12.118 22.4929 12.2913 22.7106 12.461C22.8276 12.5522 22.9433 12.6424 23.067 12.6595C23.5298 12.7235 23.6241 12.4676 23.7255 12.1922C23.7924 12.0108 23.8623 11.8209 24.0428 11.7083C24.3754 11.5009 24.5241 11.6997 24.6672 11.8911C24.7579 12.0124 24.8463 12.1306 24.9779 12.1409C25.1604 12.1551 25.4336 11.9436 25.6758 11.756C25.8239 11.6413 25.9604 11.5356 26.0576 11.4958C26.4701 11.3269 26.7697 11.5074 27.073 11.6901C27.3289 11.8443 27.5875 12.0001 27.9188 11.949C27.973 11.9406 28.023 11.9324 28.0698 11.9247C28.4769 11.858 28.6348 11.8322 29.0601 12.0982C29.3674 12.2905 29.5182 12.2626 29.7397 12.2216C29.8499 12.2012 29.9775 12.1776 30.1506 12.1762C30.3526 12.1747 30.5117 12.2659 30.6649 12.3538C30.791 12.4261 30.9132 12.4962 31.0522 12.5106C31.1292 12.5186 31.2044 12.4827 31.2811 12.4462C31.3576 12.4098 31.4354 12.3727 31.5177 12.3777C31.8499 12.3977 32.0065 12.6471 32.164 12.898C32.2854 13.0916 32.4075 13.286 32.6111 13.3765C32.9056 13.5075 33.2358 13.4214 33.5515 13.339C33.6937 13.3019 33.833 13.2655 33.9647 13.2502C34.6847 13.1663 34.5606 13.6053 34.4283 14.0729C34.3705 14.2773 34.3112 14.4871 34.32 14.6612C34.5288 14.7095 34.7391 14.6336 34.9492 14.5578C35.1478 14.4862 35.3462 14.4146 35.5427 14.4483C36.1605 14.5541 35.9524 15.174 35.8047 15.614C35.8002 15.6274 35.7958 15.6406 35.7914 15.6536C35.9069 15.6516 36.0709 15.6168 36.2554 15.5777C36.7759 15.4673 37.4588 15.3224 37.6699 15.7813C37.7571 15.971 37.6724 16.1982 37.59 16.4196C37.5331 16.5724 37.4772 16.7224 37.4795 16.8554C37.4842 17.1309 37.6087 17.3779 37.7333 17.6253C37.8162 17.7897 37.8991 17.9542 37.9471 18.1275ZM37.7018 21.2825C37.7481 21.3144 37.7794 21.336 37.7874 21.3404C38.1069 21.5188 38.3598 23.3072 38.3721 23.9911C38.3797 24.413 38.3866 26.0223 37.9369 25.8832C37.8 25.8408 37.591 24.9889 37.5613 24.4903C37.5316 23.9916 37.2462 22.2952 36.8083 21.5147C36.7844 21.4721 36.7498 21.4218 36.7127 21.3678C36.5947 21.1959 36.4513 20.9872 36.5455 20.8723C36.6768 20.7124 36.8049 20.7685 36.9564 20.835C36.9821 20.8463 37.0085 20.8579 37.0356 20.8687C37.1935 20.9318 37.5394 21.1704 37.7018 21.2825Z" fill="white"/>
</mask>
<g mask="url(#mask5_199_5857)">
<rect x="4" y="8" width="48" height="50.5263" fill="#0C092A"/>
</g>
</g>
</g>
</svg>
