<svg width="56" height="56" viewBox="0 0 56 56" fill="none" xmlns="http://www.w3.org/2000/svg">
<circle cx="28" cy="28" r="28" fill="#FFD6DD"/>
<mask id="mask0_199_5854" style="mask-type:alpha" maskUnits="userSpaceOnUse" x="0" y="0" width="56" height="56">
<circle cx="28" cy="28" r="28" fill="#C4C4C4"/>
</mask>
<g mask="url(#mask0_199_5854)">
<path fill-rule="evenodd" clip-rule="evenodd" d="M29.0002 14.4963C23.3769 14.4963 18.8184 19.0549 18.8184 24.6782V25.7145C17.7865 25.8876 17.0002 26.785 17.0002 27.8661V30.3596C17.0002 31.4626 17.8186 32.3744 18.8813 32.5209C19.2787 36.0916 21.5226 39.1049 24.6365 40.5842V43.9313C16.9353 44.3459 10.8184 50.7218 10.8184 58.5264H47.182C47.182 50.7218 41.065 44.3459 33.3638 43.9313V40.5842C36.4777 39.1049 38.7217 36.0916 39.119 32.5209C40.1817 32.3744 41.0002 31.4626 41.0002 30.3596V27.8661C41.0002 26.785 40.2139 25.8876 39.182 25.7145V24.6782C39.182 19.0549 34.6234 14.4963 29.0002 14.4963Z" fill="#D0C6AC"/>
<mask id="mask1_199_5854" style="mask-type:alpha" maskUnits="userSpaceOnUse" x="10" y="14" width="38" height="45">
<path fill-rule="evenodd" clip-rule="evenodd" d="M29.0002 14.4963C23.3769 14.4963 18.8184 19.0549 18.8184 24.6782V25.7145C17.7865 25.8876 17.0002 26.785 17.0002 27.8661V30.3596C17.0002 31.4626 17.8186 32.3744 18.8813 32.5209C19.2787 36.0916 21.5226 39.1049 24.6365 40.5842V43.9313C16.9353 44.3459 10.8184 50.7218 10.8184 58.5264H47.182C47.182 50.7218 41.065 44.3459 33.3638 43.9313V40.5842C36.4777 39.1049 38.7217 36.0916 39.119 32.5209C40.1817 32.3744 41.0002 31.4626 41.0002 30.3596V27.8661C41.0002 26.785 40.2139 25.8876 39.182 25.7145V24.6782C39.182 19.0549 34.6234 14.4963 29.0002 14.4963Z" fill="white"/>
</mask>
<g mask="url(#mask1_199_5854)">
<rect x="5" y="14.4963" width="48" height="44.0301" fill="#FFBF75"/>
<path fill-rule="evenodd" clip-rule="evenodd" d="M18.8184 31.3821V32.8257C18.8184 38.449 23.3769 43.0075 29.0002 43.0075C34.6234 43.0075 39.182 38.449 39.182 32.8257V31.3821C39.182 37.0054 34.6234 41.5639 29.0002 41.5639C23.3769 41.5639 18.8184 37.0053 18.8184 31.3821Z" fill="black" fill-opacity="0.1"/>
</g>
<path fill-rule="evenodd" clip-rule="evenodd" d="M24.6365 41.3284C21.4398 42.082 19.1599 43.6379 18.8535 45.4717C14.0869 47.8795 10.8184 52.8212 10.8184 58.5263H47.182C47.182 52.8212 43.9135 47.8795 39.1468 45.4717C38.8405 43.6379 36.5606 42.082 33.3638 41.3284V44.4184C33.3638 46.8283 31.4101 48.782 29.0002 48.782C26.5902 48.782 24.6365 46.8283 24.6365 44.4184V41.3284Z" fill="#B7C1DB"/>
<mask id="mask2_199_5854" style="mask-type:alpha" maskUnits="userSpaceOnUse" x="10" y="41" width="38" height="18">
<path fill-rule="evenodd" clip-rule="evenodd" d="M24.6365 41.3284C21.4398 42.082 19.1599 43.6379 18.8535 45.4717C14.0869 47.8795 10.8184 52.8212 10.8184 58.5263H47.182C47.182 52.8212 43.9135 47.8795 39.1468 45.4717C38.8405 43.6379 36.5606 42.082 33.3638 41.3284V44.4184C33.3638 46.8283 31.4101 48.782 29.0002 48.782C26.5902 48.782 24.6365 46.8283 24.6365 44.4184V41.3284Z" fill="white"/>
</mask>
<g mask="url(#mask2_199_5854)">
<rect x="5" y="38.6768" width="48" height="19.8496" fill="#FF6990"/>
<path fill-rule="evenodd" clip-rule="evenodd" d="M23.5452 50.106C23.0958 49.9541 22.6703 49.784 22.2725 49.5977V58.5264H23.5452V50.106ZM34.4543 50.106C34.9037 49.9541 35.3291 49.784 35.727 49.5977V56.4465C35.727 56.7979 35.4421 57.0828 35.0906 57.0828C34.7392 57.0828 34.4543 56.7979 34.4543 56.4465V50.106Z" fill="#F4F4F4"/>
<path fill-rule="evenodd" clip-rule="evenodd" d="M29.0001 50.9475C34.6234 50.9475 39.1819 48.5238 39.1819 45.5339C39.1819 43.7541 37.5665 42.175 35.0727 41.1882C38.6717 42.0947 41.091 43.7823 41.091 45.7144C41.091 48.6045 35.6777 50.9475 29.0001 50.9475ZM22.9274 41.1882C20.4337 42.175 18.8183 43.7541 18.8183 45.5339C18.8183 48.5238 23.3768 50.9475 29.0001 50.9475C22.3225 50.9475 16.9092 48.6045 16.9092 45.7144C16.9092 43.7823 19.3285 42.0947 22.9274 41.1882Z" fill="black" fill-opacity="0.16"/>
</g>
<path fill-rule="evenodd" clip-rule="evenodd" d="M26.4541 34.8872C26.4541 36.2825 27.5937 37.4135 28.9996 37.4135C30.4054 37.4135 31.545 36.2825 31.545 34.8872" fill="#0C092A"/>
<g opacity="0.3">
<path fill-rule="evenodd" clip-rule="evenodd" d="M26.8184 31.4585C26.8184 32.2558 27.7952 32.9021 29.0002 32.9021C30.2052 32.9021 31.182 32.2558 31.182 31.4585" fill="#0C092A"/>
</g>
<ellipse cx="24.2725" cy="28.2104" rx="1.09091" ry="1.08271" fill="#0C092A"/>
<ellipse cx="33.7276" cy="28.2104" rx="1.09091" ry="1.08271" fill="#0C092A"/>
<path d="M21.6601 25.8933C22.3719 24.8992 24.3233 24.3418 26.0042 24.7515C26.1993 24.799 26.3962 24.6806 26.4441 24.4871C26.492 24.2935 26.3727 24.098 26.1777 24.0505C24.2255 23.5747 21.9659 24.2202 21.0673 25.4751C20.9509 25.6376 20.9893 25.8629 21.153 25.9784C21.3167 26.0938 21.5437 26.0557 21.6601 25.8933Z" fill="#0C092A"/>
<path d="M36.3399 25.8933C35.6281 24.8992 33.6767 24.3418 31.9958 24.7515C31.8008 24.799 31.6038 24.6806 31.5559 24.4871C31.508 24.2935 31.6273 24.098 31.8223 24.0505C33.7745 23.5747 36.0341 24.2202 36.9327 25.4751C37.0491 25.6376 37.0107 25.8629 36.847 25.9784C36.6833 26.0938 36.4563 26.0557 36.3399 25.8933Z" fill="#0C092A"/>
<mask id="mask3_199_5854" style="mask-type:alpha" maskUnits="userSpaceOnUse" x="5" y="8" width="48" height="51">
<rect x="5" y="8" width="48" height="50.5263" fill="white"/>
</mask>
<g mask="url(#mask3_199_5854)">
<path fill-rule="evenodd" clip-rule="evenodd" d="M24.1912 33.5658C24.487 33.3898 24.7743 33.2189 25.0713 33.1063C26.0148 32.7485 27.7658 32.85 29.0007 33.4971C30.2356 32.85 31.9865 32.7485 32.9301 33.1063C33.2271 33.2189 33.5144 33.3898 33.8102 33.5658C34.5602 34.012 35.3649 34.4908 36.521 34.1343C36.5881 34.1136 36.6536 34.1734 36.6335 34.239C36.3838 35.0528 34.9957 35.6101 34.5241 35.6284C33.3956 35.672 32.3872 35.2203 31.4103 34.7827C30.6023 34.4208 29.8159 34.0686 29.0007 34.0139C28.1855 34.0686 27.399 34.4208 26.5911 34.7827C25.6142 35.2203 24.6058 35.672 23.4774 35.6284C23.0057 35.6101 21.6177 35.0528 21.368 34.239C21.3478 34.1734 21.4133 34.1136 21.4804 34.1343C22.6365 34.4908 23.4412 34.012 24.1912 33.5658Z" fill="#28354B"/>
<mask id="mask4_199_5854" style="mask-type:alpha" maskUnits="userSpaceOnUse" x="21" y="32" width="16" height="4">
<path fill-rule="evenodd" clip-rule="evenodd" d="M24.1912 33.5658C24.487 33.3898 24.7743 33.2189 25.0713 33.1063C26.0148 32.7485 27.7658 32.85 29.0007 33.4971C30.2356 32.85 31.9865 32.7485 32.9301 33.1063C33.2271 33.2189 33.5144 33.3898 33.8102 33.5658C34.5602 34.012 35.3649 34.4908 36.521 34.1343C36.5881 34.1136 36.6536 34.1734 36.6335 34.239C36.3838 35.0528 34.9957 35.6101 34.5241 35.6284C33.3956 35.672 32.3872 35.2203 31.4103 34.7827C30.6023 34.4208 29.8159 34.0686 29.0007 34.0139C28.1855 34.0686 27.399 34.4208 26.5911 34.7827C25.6142 35.2203 24.6058 35.672 23.4774 35.6284C23.0057 35.6101 21.6177 35.0528 21.368 34.239C21.3478 34.1734 21.4133 34.1136 21.4804 34.1343C22.6365 34.4908 23.4412 34.012 24.1912 33.5658Z" fill="white"/>
</mask>
<g mask="url(#mask4_199_5854)">
<rect x="13.7275" y="20.9924" width="30.5455" height="27.4286" fill="#0C092A"/>
</g>
<path fill-rule="evenodd" clip-rule="evenodd" d="M37.5725 15.2036C37.0707 14.6948 36.4881 14.2628 35.9214 13.8297C35.7964 13.7342 35.6693 13.6411 35.5471 13.5419C35.5193 13.5194 35.2346 13.3171 35.2006 13.2426C35.1186 13.0635 35.1661 13.203 35.1774 12.9892C35.1917 12.7188 35.7471 11.9553 35.3327 11.7802C35.1504 11.7032 34.8251 11.9082 34.6502 11.9758C34.3081 12.1083 33.9619 12.2213 33.6082 12.3187C33.7777 11.9837 34.1007 11.3129 33.4935 11.4925C33.0205 11.6323 32.5797 11.9919 32.1044 12.1611C32.2617 11.9052 32.8906 11.1124 32.3223 11.068C32.1455 11.0542 31.6309 11.3835 31.4405 11.4537C30.8701 11.6641 30.2876 11.8001 29.6888 11.9072C27.6528 12.2714 25.272 12.1675 23.3882 13.0875C21.936 13.7967 20.502 14.8972 19.6631 16.2985C18.8545 17.6491 18.5521 19.1273 18.3828 20.6751C18.2586 21.8109 18.2485 22.9851 18.3066 24.1251C18.3256 24.4986 18.3679 26.2203 18.9146 25.6989C19.187 25.4391 19.185 24.39 19.2536 24.0349C19.3901 23.3284 19.5216 22.6188 19.7492 21.9349C20.1503 20.7297 20.6235 19.4459 21.6228 18.6159C22.2641 18.0832 22.7144 17.3634 23.3281 16.826C23.6038 16.5847 23.3934 16.6098 23.8366 16.6415C24.1344 16.6628 24.4335 16.6709 24.7318 16.6786C25.422 16.6964 26.1133 16.6919 26.8036 16.6943C28.194 16.6993 29.5778 16.7188 30.9668 16.6465C31.584 16.6144 32.203 16.5971 32.8186 16.5404C33.1625 16.5087 33.7727 16.29 34.0558 16.4571C34.3149 16.6101 34.5839 17.1095 34.77 17.314C35.2095 17.7973 35.7335 18.1664 36.2474 18.5628C37.3191 19.3891 37.8602 20.427 38.1856 21.7184C38.5099 23.0051 38.419 24.1987 38.8204 25.4649C38.891 25.6875 39.0777 26.0712 39.308 25.7273C39.3507 25.6634 39.3397 25.3123 39.3397 25.1102C39.3397 24.2946 39.5478 23.6827 39.5451 22.8618C39.5349 20.3658 39.4536 17.1111 37.5725 15.2036Z" fill="#0C092A"/>
<mask id="mask5_199_5854" style="mask-type:alpha" maskUnits="userSpaceOnUse" x="18" y="11" width="22" height="15">
<path fill-rule="evenodd" clip-rule="evenodd" d="M37.5725 15.2036C37.0707 14.6948 36.4881 14.2628 35.9214 13.8297C35.7964 13.7342 35.6693 13.6411 35.5471 13.5419C35.5193 13.5194 35.2346 13.3171 35.2006 13.2426C35.1186 13.0635 35.1661 13.203 35.1774 12.9892C35.1917 12.7188 35.7471 11.9553 35.3327 11.7802C35.1504 11.7032 34.8251 11.9082 34.6502 11.9758C34.3081 12.1083 33.9619 12.2213 33.6082 12.3187C33.7777 11.9837 34.1007 11.3129 33.4935 11.4925C33.0205 11.6323 32.5797 11.9919 32.1044 12.1611C32.2617 11.9052 32.8906 11.1124 32.3223 11.068C32.1455 11.0542 31.6309 11.3835 31.4405 11.4537C30.8701 11.6641 30.2876 11.8001 29.6888 11.9072C27.6528 12.2714 25.272 12.1675 23.3882 13.0875C21.936 13.7967 20.502 14.8972 19.6631 16.2985C18.8545 17.6491 18.5521 19.1273 18.3828 20.6751C18.2586 21.8109 18.2485 22.9851 18.3066 24.1251C18.3256 24.4986 18.3679 26.2203 18.9146 25.6989C19.187 25.4391 19.185 24.39 19.2536 24.0349C19.3901 23.3284 19.5216 22.6188 19.7492 21.9349C20.1503 20.7297 20.6235 19.4459 21.6228 18.6159C22.2641 18.0832 22.7144 17.3634 23.3281 16.826C23.6038 16.5847 23.3934 16.6098 23.8366 16.6415C24.1344 16.6628 24.4335 16.6709 24.7318 16.6786C25.422 16.6964 26.1133 16.6919 26.8036 16.6943C28.194 16.6993 29.5778 16.7188 30.9668 16.6465C31.584 16.6144 32.203 16.5971 32.8186 16.5404C33.1625 16.5087 33.7727 16.29 34.0558 16.4571C34.3149 16.6101 34.5839 17.1095 34.77 17.314C35.2095 17.7973 35.7335 18.1664 36.2474 18.5628C37.3191 19.3891 37.8602 20.427 38.1856 21.7184C38.5099 23.0051 38.419 24.1987 38.8204 25.4649C38.891 25.6875 39.0777 26.0712 39.308 25.7273C39.3507 25.6634 39.3397 25.3123 39.3397 25.1102C39.3397 24.2946 39.5478 23.6827 39.5451 22.8618C39.5349 20.3658 39.4536 17.1111 37.5725 15.2036Z" fill="white"/>
</mask>
<g mask="url(#mask5_199_5854)">
<rect x="5" y="8" width="48" height="50.5263" fill="#0C092A"/>
</g>
</g>
</g>
</svg>
