<svg width="56" height="56" viewBox="0 0 56 56" fill="none" xmlns="http://www.w3.org/2000/svg">
<circle cx="28" cy="28" r="28" fill="#FFD6DD"/>
<mask id="mask0_199_5850" style="mask-type:alpha" maskUnits="userSpaceOnUse" x="0" y="0" width="56" height="56">
<circle cx="28" cy="28" r="28" fill="#C4C4C4"/>
</mask>
<g mask="url(#mask0_199_5850)">
<path fill-rule="evenodd" clip-rule="evenodd" d="M28.0002 14.4961C22.3769 14.4961 17.8184 19.0546 17.8184 24.6779V25.7143C16.7865 25.8874 16.0002 26.7848 16.0002 27.8659V30.3594C16.0002 31.4624 16.8186 32.3742 17.8813 32.5207C18.2787 36.0914 20.5226 39.1047 23.6365 40.5839V43.9311C15.9353 44.3457 9.81836 50.7216 9.81836 58.5262H46.182C46.182 50.7216 40.065 44.3457 32.3638 43.9311V40.5839C35.4777 39.1047 37.7217 36.0914 38.119 32.5207C39.1817 32.3742 40.0002 31.4624 40.0002 30.3594V27.8659C40.0002 26.7848 39.2139 25.8874 38.182 25.7143V24.6779C38.182 19.0547 33.6234 14.4961 28.0002 14.4961Z" fill="#D0C6AC"/>
<mask id="mask1_199_5850" style="mask-type:alpha" maskUnits="userSpaceOnUse" x="9" y="14" width="38" height="45">
<path fill-rule="evenodd" clip-rule="evenodd" d="M28.0002 14.4961C22.3769 14.4961 17.8184 19.0546 17.8184 24.6779V25.7143C16.7865 25.8874 16.0002 26.7848 16.0002 27.8659V30.3594C16.0002 31.4624 16.8186 32.3742 17.8813 32.5207C18.2787 36.0914 20.5226 39.1047 23.6365 40.5839V43.9311C15.9353 44.3457 9.81836 50.7216 9.81836 58.5262H46.182C46.182 50.7216 40.065 44.3457 32.3638 43.9311V40.5839C35.4777 39.1047 37.7217 36.0914 38.119 32.5207C39.1817 32.3742 40.0002 31.4624 40.0002 30.3594V27.8659C40.0002 26.7848 39.2139 25.8874 38.182 25.7143V24.6779C38.182 19.0547 33.6234 14.4961 28.0002 14.4961Z" fill="white"/>
</mask>
<g mask="url(#mask1_199_5850)">
<rect width="48" height="44.0301" transform="translate(4 14.4961)" fill="#FFCCD7"/>
<rect x="4" y="14.4961" width="48" height="44.0301" fill="#FFCCD7"/>
<path fill-rule="evenodd" clip-rule="evenodd" d="M17.8184 31.3821V32.8257C17.8184 38.449 22.3769 43.0075 28.0002 43.0075C33.6234 43.0075 38.182 38.449 38.182 32.8257V31.3821C38.182 37.0053 33.6234 41.5639 28.0002 41.5639C22.3769 41.5639 17.8184 37.0053 17.8184 31.3821Z" fill="black" fill-opacity="0.1"/>
</g>
<path fill-rule="evenodd" clip-rule="evenodd" d="M28.0911 50.5553C33.0617 50.5553 37.0911 48.1736 37.0911 45.2356C37.0911 45.1542 37.088 45.0732 37.0819 44.9927C42.4195 47.1669 46.182 52.4072 46.182 58.5262H9.81836C9.81836 52.3354 13.6696 47.0441 19.1069 44.9175C19.0964 45.0227 19.0911 45.1288 19.0911 45.2356C19.0911 48.1736 23.1205 50.5553 28.0911 50.5553Z" fill="#6223A9"/>
<mask id="mask2_199_5850" style="mask-type:alpha" maskUnits="userSpaceOnUse" x="9" y="44" width="38" height="15">
<path fill-rule="evenodd" clip-rule="evenodd" d="M28.0911 50.5553C33.0617 50.5553 37.0911 48.1736 37.0911 45.2356C37.0911 45.1542 37.088 45.0732 37.0819 44.9927C42.4195 47.1669 46.182 52.4072 46.182 58.5262H9.81836C9.81836 52.3354 13.6696 47.0441 19.1069 44.9175C19.0964 45.0227 19.0911 45.1288 19.0911 45.2356C19.0911 48.1736 23.1205 50.5553 28.0911 50.5553Z" fill="white"/>
</mask>
<g mask="url(#mask2_199_5850)">
<rect x="4" y="38.6768" width="48" height="19.8496" fill="#6223A9"/>
</g>
<path fill-rule="evenodd" clip-rule="evenodd" d="M25.4541 34.8872C25.4541 36.2825 26.5937 37.4135 27.9996 37.4135C29.4054 37.4135 30.545 36.2825 30.545 34.8872" fill="#0C092A"/>
<g opacity="0.3">
<path fill-rule="evenodd" clip-rule="evenodd" d="M25.8184 31.4587C25.8184 32.256 26.7952 32.9024 28.0002 32.9024C29.2052 32.9024 30.182 32.256 30.182 31.4587" fill="#0C092A"/>
</g>
<ellipse cx="23.2725" cy="28.2101" rx="1.09091" ry="1.08271" fill="#0C092A"/>
<ellipse cx="32.7276" cy="28.2101" rx="1.09091" ry="1.08271" fill="#0C092A"/>
<path d="M20.6601 25.893C21.3719 24.899 23.3233 24.3415 25.0042 24.7512C25.1993 24.7988 25.3962 24.6804 25.4441 24.4868C25.492 24.2932 25.3727 24.0978 25.1777 24.0503C23.2255 23.5745 20.9659 24.2199 20.0673 25.4749C19.9509 25.6374 19.9893 25.8627 20.153 25.9781C20.3167 26.0936 20.5437 26.0555 20.6601 25.893Z" fill="#0C092A"/>
<path d="M35.3399 25.893C34.6281 24.899 32.6767 24.3415 30.9958 24.7512C30.8007 24.7988 30.6038 24.6804 30.5559 24.4868C30.508 24.2932 30.6273 24.0978 30.8223 24.0503C32.7745 23.5745 35.0341 24.2199 35.9327 25.4749C36.0491 25.6374 36.0107 25.8627 35.847 25.9781C35.6833 26.0936 35.4563 26.0555 35.3399 25.893Z" fill="#0C092A"/>
<mask id="mask3_199_5850" style="mask-type:alpha" maskUnits="userSpaceOnUse" x="4" y="8" width="48" height="51">
<rect x="4" y="8" width="48" height="50.5263" fill="white"/>
</mask>
<g mask="url(#mask3_199_5850)">
<path fill-rule="evenodd" clip-rule="evenodd" d="M11.0906 34.1654C10.9784 28.601 16.2395 16.9855 18.1815 14.6767C19.6221 12.964 23.5807 11.5279 27.9998 11.609C32.4188 11.6901 36.5201 12.6578 37.9998 14.4962C40.2405 17.2801 44.8849 27.8638 44.9088 34.1654C44.9258 38.6406 43.1747 43.1266 40.727 43.3684C39.345 43.5049 37.5895 43.3277 35.48 43.1147L35.4798 43.1147L35.4797 43.1147L35.4795 43.1147L35.4794 43.1147C34.5141 43.0172 33.4748 42.9123 32.3633 42.8265V40.584C35.8033 38.9499 38.1815 35.4437 38.1815 31.382V26.3272C36.2709 25.2825 34.6443 24.0213 33.2892 22.7397C33.8993 23.8659 34.5971 24.8884 35.384 25.6613C29.8235 24.1129 25.9796 20.942 23.676 18.4559C22.617 20.4551 20.7203 23.3789 17.8179 25.6061V31.382C17.8179 35.4437 20.1961 38.9499 23.6361 40.584V42.9616C22.3719 43.1334 21.1969 43.3513 20.1157 43.5519C18.1432 43.9178 16.4825 44.2258 15.1606 44.0902C12.5746 43.825 11.1809 38.6398 11.0906 34.1654Z" fill="#E6E6E6"/>
<mask id="mask4_199_5850" style="mask-type:alpha" maskUnits="userSpaceOnUse" x="11" y="11" width="34" height="34">
<path fill-rule="evenodd" clip-rule="evenodd" d="M11.0906 34.1654C10.9784 28.601 16.2395 16.9855 18.1815 14.6767C19.6221 12.964 23.5807 11.5279 27.9998 11.609C32.4188 11.6901 36.5201 12.6578 37.9998 14.4962C40.2405 17.2801 44.8849 27.8638 44.9088 34.1654C44.9258 38.6406 43.1747 43.1266 40.727 43.3684C39.345 43.5049 37.5895 43.3277 35.48 43.1147L35.4798 43.1147L35.4797 43.1147L35.4795 43.1147L35.4794 43.1147C34.5141 43.0172 33.4748 42.9123 32.3633 42.8265V40.584C35.8033 38.9499 38.1815 35.4437 38.1815 31.382V26.3272C36.2709 25.2825 34.6443 24.0213 33.2892 22.7397C33.8993 23.8659 34.5971 24.8884 35.384 25.6613C29.8235 24.1129 25.9796 20.942 23.676 18.4559C22.617 20.4551 20.7203 23.3789 17.8179 25.6061V31.382C17.8179 35.4437 20.1961 38.9499 23.6361 40.584V42.9616C22.3719 43.1334 21.1969 43.3513 20.1157 43.5519C18.1432 43.9178 16.4825 44.2258 15.1606 44.0902C12.5746 43.825 11.1809 38.6398 11.0906 34.1654Z" fill="white"/>
</mask>
<g mask="url(#mask4_199_5850)">
<rect x="3.81836" y="8" width="48.3636" height="50.5263" fill="#0C092A"/>
</g>
</g>
</g>
</svg>
