<svg width="56" height="56" viewBox="0 0 56 56" fill="none" xmlns="http://www.w3.org/2000/svg">
<circle cx="28" cy="28" r="28" fill="#FFD6DD"/>
<mask id="mask0_199_5849" style="mask-type:alpha" maskUnits="userSpaceOnUse" x="0" y="0" width="56" height="56">
<circle cx="28" cy="28" r="28" fill="#C4C4C4"/>
</mask>
<g mask="url(#mask0_199_5849)">
<path fill-rule="evenodd" clip-rule="evenodd" d="M28.0002 14.4963C22.3769 14.4963 17.8184 19.0549 17.8184 24.6782V25.7145C16.7865 25.8876 16.0002 26.785 16.0002 27.8661V30.3596C16.0002 31.4626 16.8186 32.3744 17.8813 32.5209C18.2787 36.0916 20.5226 39.1049 23.6365 40.5842V43.9313C15.9353 44.3459 9.81836 50.7218 9.81836 58.5264H46.182C46.182 50.7218 40.065 44.3459 32.3638 43.9313V40.5842C35.4777 39.1049 37.7217 36.0916 38.119 32.5209C39.1817 32.3744 40.0002 31.4626 40.0002 30.3596V27.8661C40.0002 26.785 39.2139 25.8876 38.182 25.7145V24.6782C38.182 19.0549 33.6234 14.4963 28.0002 14.4963Z" fill="#D0C6AC"/>
<mask id="mask1_199_5849" style="mask-type:alpha" maskUnits="userSpaceOnUse" x="9" y="14" width="38" height="45">
<path fill-rule="evenodd" clip-rule="evenodd" d="M28.0002 14.4963C22.3769 14.4963 17.8184 19.0549 17.8184 24.6782V25.7145C16.7865 25.8876 16.0002 26.785 16.0002 27.8661V30.3596C16.0002 31.4626 16.8186 32.3744 17.8813 32.5209C18.2787 36.0916 20.5226 39.1049 23.6365 40.5842V43.9313C15.9353 44.3459 9.81836 50.7218 9.81836 58.5264H46.182C46.182 50.7218 40.065 44.3459 32.3638 43.9313V40.5842C35.4777 39.1049 37.7217 36.0916 38.119 32.5209C39.1817 32.3744 40.0002 31.4626 40.0002 30.3596V27.8661C40.0002 26.785 39.2139 25.8876 38.182 25.7145V24.6782C38.182 19.0549 33.6234 14.4963 28.0002 14.4963Z" fill="white"/>
</mask>
<g mask="url(#mask1_199_5849)">
<rect x="4" y="14.4963" width="48" height="44.0301" fill="#EDB98A"/>
<path fill-rule="evenodd" clip-rule="evenodd" d="M17.8184 31.3821V32.8257C17.8184 38.449 22.3769 43.0075 28.0002 43.0075C33.6234 43.0075 38.182 38.449 38.182 32.8257V31.3821C38.182 37.0054 33.6234 41.5639 28.0002 41.5639C22.3769 41.5639 17.8184 37.0053 17.8184 31.3821Z" fill="black" fill-opacity="0.1"/>
</g>
<path fill-rule="evenodd" clip-rule="evenodd" d="M28.0002 48.9718C30.7114 48.9718 32.9093 46.952 32.9093 44.4605C32.9093 44.2971 32.8998 44.1357 32.8814 43.9768C40.3366 44.6377 46.182 50.8994 46.182 58.5264H9.81836C9.81836 50.8994 15.6638 44.6377 23.119 43.9768C23.1005 44.1357 23.0911 44.2971 23.0911 44.4605C23.0911 46.952 25.289 48.9718 28.0002 48.9718Z" fill="#E6E6E6"/>
<mask id="mask2_199_5849" style="mask-type:alpha" maskUnits="userSpaceOnUse" x="9" y="43" width="38" height="16">
<path fill-rule="evenodd" clip-rule="evenodd" d="M28.0002 48.9718C30.7114 48.9718 32.9093 46.952 32.9093 44.4605C32.9093 44.2971 32.8998 44.1357 32.8814 43.9768C40.3366 44.6377 46.182 50.8994 46.182 58.5264H9.81836C9.81836 50.8994 15.6638 44.6377 23.119 43.9768C23.1005 44.1357 23.0911 44.2971 23.0911 44.4605C23.0911 46.952 25.289 48.9718 28.0002 48.9718Z" fill="white"/>
</mask>
<g mask="url(#mask2_199_5849)">
<rect x="4" y="38.6768" width="48" height="19.8496" fill="#FF7096"/>
</g>
<path fill-rule="evenodd" clip-rule="evenodd" d="M23.6367 42.5693C22.4063 43.3999 21.6367 44.5847 21.6367 45.8998C21.6367 47.2348 22.4297 48.4355 23.6928 49.2677L24.8041 48.3988L25.6367 48.4586L25.4549 47.89L25.469 47.8789C24.3599 47.3119 23.6367 46.3821 23.6367 45.3312C23.6367 45.3312 23.6367 45.3312 23.6367 45.3312V42.5693ZM32.364 45.3312C32.364 45.3312 32.364 45.3312 32.364 45.3312C32.364 46.3821 31.6408 47.3119 30.5317 47.8789L30.5458 47.89L30.364 48.4586L31.1966 48.3988L32.2238 49.2019C33.4299 48.3729 34.1822 47.2001 34.1822 45.8998C34.1822 44.6507 33.4879 43.5192 32.364 42.6971V45.3312Z" fill="#F2F2F2"/>
<path d="M25.4541 35.0677C25.4541 36.037 26.5738 36.6918 27.9996 36.6918C29.4253 36.6918 30.545 36.037 30.545 35.0677C30.545 34.8684 30.3723 34.7068 30.1814 34.7068C29.9463 34.7068 29.8414 34.8701 29.8177 35.0677C29.5918 35.5978 29.0329 35.9188 27.9996 35.9699C26.9662 35.9188 26.4073 35.5978 26.1814 35.0677C26.1577 34.8701 26.0528 34.7068 25.8177 34.7068C25.6268 34.7068 25.4541 34.8684 25.4541 35.0677Z" fill="black" fill-opacity="0.6"/>
<path fill-rule="evenodd" clip-rule="evenodd" d="M25.8184 31.4585C25.8184 32.2558 26.7952 32.9021 28.0002 32.9021C29.2052 32.9021 30.182 32.2558 30.182 31.4585" fill="black" fill-opacity="0.16"/>
<ellipse cx="23.2725" cy="28.2104" rx="1.09091" ry="1.08271" fill="black" fill-opacity="0.6"/>
<ellipse cx="32.7276" cy="28.2104" rx="1.09091" ry="1.08271" fill="black" fill-opacity="0.6"/>
<path d="M20.6601 25.8933C21.3719 24.8992 23.3233 24.3418 25.0042 24.7515C25.1993 24.799 25.3962 24.6806 25.4441 24.4871C25.492 24.2935 25.3727 24.098 25.1777 24.0505C23.2255 23.5747 20.9659 24.2202 20.0673 25.4751C19.9509 25.6376 19.9893 25.8629 20.153 25.9784C20.3167 26.0938 20.5437 26.0557 20.6601 25.8933Z" fill="black" fill-opacity="0.6"/>
<path d="M35.3399 25.8933C34.6281 24.8992 32.6767 24.3418 30.9958 24.7515C30.8008 24.799 30.6038 24.6806 30.5559 24.4871C30.508 24.2935 30.6273 24.098 30.8223 24.0505C32.7745 23.5747 35.0341 24.2202 35.9327 25.4751C36.0491 25.6376 36.0107 25.8629 35.847 25.9784C35.6833 26.0938 35.4563 26.0557 35.3399 25.8933Z" fill="black" fill-opacity="0.6"/>
<mask id="mask3_199_5849" style="mask-type:alpha" maskUnits="userSpaceOnUse" x="4" y="8" width="48" height="51">
<rect x="4" y="8" width="48" height="50.5263" fill="white"/>
</mask>
<g mask="url(#mask3_199_5849)">
<path fill-rule="evenodd" clip-rule="evenodd" d="M12.9092 24.3308C12.9092 25.1519 13.2174 25.8904 13.7916 26.2748C13.9561 26.3849 14.2408 26.4416 14.5455 26.4673V40.842C14.5455 41.6393 15.1968 42.2856 16.0001 42.2856H23.6365V40.5914C20.449 39.0886 18.1731 35.9906 17.8562 32.3369C16.8057 32.1808 16.0001 31.2815 16.0001 30.1954V27.8496C16.0001 27.2197 16.2711 26.6526 16.7036 26.2569C18.8017 25.7843 21.0857 24.8969 23.3349 23.6081C25.5407 22.3442 27.4263 20.8585 28.8766 19.3236C28.2536 20.7507 27.4991 22.0008 26.6132 23.0739C28.9178 22.0773 30.487 20.475 31.3207 18.2669C31.3894 18.4333 31.461 18.5994 31.5354 18.7653C33.4001 22.9219 36.6033 25.8679 39.8557 26.8396C39.949 27.2204 40.0001 27.576 40.0001 27.8496V30.1954C40.0001 31.2815 39.1945 32.1808 38.144 32.3369C37.827 35.9906 35.5511 39.0886 32.3637 40.5914V42.2856H35.6365C38.8497 42.2856 41.4546 39.7003 41.4546 36.5112V27.155V26.7442C41.4546 26.7316 41.4528 26.7151 41.449 26.6948C41.4356 25.677 41.3983 23.2892 41.3383 22.8376C40.4686 16.2964 34.8284 11.248 28.0001 11.248C21.4392 11.248 15.9751 15.9088 14.7274 22.0751C13.7232 22.0751 12.9092 23.085 12.9092 24.3308Z" fill="#944F23"/>
<mask id="mask4_199_5849" style="mask-type:alpha" maskUnits="userSpaceOnUse" x="12" y="11" width="30" height="32">
<path fill-rule="evenodd" clip-rule="evenodd" d="M12.9092 24.3308C12.9092 25.1519 13.2174 25.8904 13.7916 26.2748C13.9561 26.3849 14.2408 26.4416 14.5455 26.4673V40.842C14.5455 41.6393 15.1968 42.2856 16.0001 42.2856H23.6365V40.5914C20.449 39.0886 18.1731 35.9906 17.8562 32.3369C16.8057 32.1808 16.0001 31.2815 16.0001 30.1954V27.8496C16.0001 27.2197 16.2711 26.6526 16.7036 26.2569C18.8017 25.7843 21.0857 24.8969 23.3349 23.6081C25.5407 22.3442 27.4263 20.8585 28.8766 19.3236C28.2536 20.7507 27.4991 22.0008 26.6132 23.0739C28.9178 22.0773 30.487 20.475 31.3207 18.2669C31.3894 18.4333 31.461 18.5994 31.5354 18.7653C33.4001 22.9219 36.6033 25.8679 39.8557 26.8396C39.949 27.2204 40.0001 27.576 40.0001 27.8496V30.1954C40.0001 31.2815 39.1945 32.1808 38.144 32.3369C37.827 35.9906 35.5511 39.0886 32.3637 40.5914V42.2856H35.6365C38.8497 42.2856 41.4546 39.7003 41.4546 36.5112V27.155V26.7442C41.4546 26.7316 41.4528 26.7151 41.449 26.6948C41.4356 25.677 41.3983 23.2892 41.3383 22.8376C40.4686 16.2964 34.8284 11.248 28.0001 11.248C21.4392 11.248 15.9751 15.9088 14.7274 22.0751C13.7232 22.0751 12.9092 23.085 12.9092 24.3308Z" fill="white"/>
</mask>
<g mask="url(#mask4_199_5849)">
<rect x="3.81836" y="8" width="48.3636" height="50.5263" fill="#2C1B18"/>
</g>
<g opacity="0.439991">
<path fill-rule="evenodd" clip-rule="evenodd" d="M31.5354 18.7653C33.7059 23.6038 37.6903 26.8019 41.4546 27.155V24.6014C41.4546 17.2266 35.4308 11.248 28.0001 11.248C21.4392 11.248 15.9751 15.9088 14.7858 22.0763C14.7664 22.0755 14.7469 22.0751 14.7274 22.0751C13.7232 22.0751 12.9092 23.085 12.9092 24.3308C12.9092 25.5004 13.6268 26.4621 14.5455 26.5753V26.6031C14.603 26.5979 14.6607 26.5923 14.7187 26.5864C14.7216 26.5864 14.7245 26.5864 14.7274 26.5864C14.8454 26.5864 14.9609 26.5724 15.0727 26.5458C17.5839 26.2281 20.4873 25.2398 23.3349 23.6081C25.5407 22.3442 27.4263 20.8585 28.8766 19.3236C28.2536 20.7507 27.4991 22.0008 26.6132 23.0739C28.9178 22.0773 30.487 20.475 31.3207 18.2669C31.3894 18.4333 31.461 18.5994 31.5354 18.7653Z" fill="white" fill-opacity="0.16"/>
</g>
</g>
</g>
</svg>
