<svg width="56" height="56" viewBox="0 0 56 56" fill="none" xmlns="http://www.w3.org/2000/svg">
<circle cx="28" cy="28" r="28" fill="#BF83FF"/>
<mask id="mask0_199_5848" style="mask-type:alpha" maskUnits="userSpaceOnUse" x="0" y="0" width="56" height="56">
<circle cx="28" cy="28" r="28" fill="#C4C4C4"/>
</mask>
<g mask="url(#mask0_199_5848)">
<path fill-rule="evenodd" clip-rule="evenodd" d="M28.0002 14.4963C22.3769 14.4963 17.8184 19.0549 17.8184 24.6782V25.7145C16.7865 25.8876 16.0002 26.785 16.0002 27.8661V30.3596C16.0002 31.4626 16.8186 32.3744 17.8813 32.5209C18.2787 36.0916 20.5226 39.1049 23.6365 40.5842V43.9313C15.9353 44.3459 9.81836 50.7218 9.81836 58.5264H46.182C46.182 50.7218 40.065 44.3459 32.3638 43.9313V40.5842C35.4777 39.1049 37.7217 36.0916 38.119 32.5209C39.1817 32.3744 40.0002 31.4626 40.0002 30.3596V27.8661C40.0002 26.785 39.2139 25.8876 38.182 25.7145V24.6782C38.182 19.0549 33.6234 14.4963 28.0002 14.4963Z" fill="#D0C6AC"/>
<mask id="mask1_199_5848" style="mask-type:alpha" maskUnits="userSpaceOnUse" x="9" y="14" width="38" height="45">
<path fill-rule="evenodd" clip-rule="evenodd" d="M28.0002 14.4963C22.3769 14.4963 17.8184 19.0549 17.8184 24.6782V25.7145C16.7865 25.8876 16.0002 26.785 16.0002 27.8661V30.3596C16.0002 31.4626 16.8186 32.3744 17.8813 32.5209C18.2787 36.0916 20.5226 39.1049 23.6365 40.5842V43.9313C15.9353 44.3459 9.81836 50.7218 9.81836 58.5264H46.182C46.182 50.7218 40.065 44.3459 32.3638 43.9313V40.5842C35.4777 39.1049 37.7217 36.0916 38.119 32.5209C39.1817 32.3744 40.0002 31.4626 40.0002 30.3596V27.8661C40.0002 26.785 39.2139 25.8876 38.182 25.7145V24.6782C38.182 19.0549 33.6234 14.4963 28.0002 14.4963Z" fill="white"/>
</mask>
<g mask="url(#mask1_199_5848)">
<rect width="48" height="44.0301" transform="translate(4 14.4963)" fill="#FFCCD7"/>
<rect x="4" y="14.4963" width="48" height="44.0301" fill="#FFCCD7"/>
<path fill-rule="evenodd" clip-rule="evenodd" d="M17.8184 31.3821V32.8257C17.8184 38.449 22.3769 43.0075 28.0002 43.0075C33.6234 43.0075 38.182 38.449 38.182 32.8257V31.3821C38.182 37.0054 33.6234 41.5639 28.0002 41.5639C22.3769 41.5639 17.8184 37.0053 17.8184 31.3821Z" fill="black" fill-opacity="0.1"/>
</g>
<path fill-rule="evenodd" clip-rule="evenodd" d="M28.0911 50.5554C33.0616 50.5554 37.0911 48.1737 37.0911 45.2357C37.0911 45.1544 37.088 45.0734 37.0819 44.9929C42.4195 47.1672 46.182 52.4074 46.182 58.5264H9.81836C9.81836 52.3357 13.6696 47.0444 19.1069 44.9177C19.0964 45.0229 19.0911 45.129 19.0911 45.2357C19.0911 48.1737 23.1205 50.5554 28.0911 50.5554Z" fill="#6223A9"/>
<mask id="mask2_199_5848" style="mask-type:alpha" maskUnits="userSpaceOnUse" x="9" y="44" width="38" height="15">
<path fill-rule="evenodd" clip-rule="evenodd" d="M28.0911 50.5554C33.0616 50.5554 37.0911 48.1737 37.0911 45.2357C37.0911 45.1544 37.088 45.0734 37.0819 44.9929C42.4195 47.1672 46.182 52.4074 46.182 58.5264H9.81836C9.81836 52.3357 13.6696 47.0444 19.1069 44.9177C19.0964 45.0229 19.0911 45.129 19.0911 45.2357C19.0911 48.1737 23.1205 50.5554 28.0911 50.5554Z" fill="white"/>
</mask>
<g mask="url(#mask2_199_5848)">
<rect x="4" y="38.6768" width="48" height="19.8496" fill="#6223A9"/>
</g>
<path fill-rule="evenodd" clip-rule="evenodd" d="M25.4541 34.8872C25.4541 36.2825 26.5937 37.4135 27.9996 37.4135C29.4054 37.4135 30.545 36.2825 30.545 34.8872" fill="#0C092A"/>
<g opacity="0.3">
<path fill-rule="evenodd" clip-rule="evenodd" d="M25.8184 31.4585C25.8184 32.2558 26.7952 32.9021 28.0002 32.9021C29.2052 32.9021 30.182 32.2558 30.182 31.4585" fill="#0C092A"/>
</g>
<ellipse cx="23.2725" cy="28.2104" rx="1.09091" ry="1.08271" fill="#0C092A"/>
<ellipse cx="32.7276" cy="28.2104" rx="1.09091" ry="1.08271" fill="#0C092A"/>
<path d="M20.6601 25.8933C21.3719 24.8992 23.3233 24.3418 25.0042 24.7515C25.1993 24.799 25.3962 24.6806 25.4441 24.4871C25.492 24.2935 25.3727 24.098 25.1777 24.0505C23.2255 23.5747 20.9659 24.2202 20.0673 25.4751C19.9509 25.6376 19.9893 25.8629 20.153 25.9784C20.3167 26.0938 20.5437 26.0557 20.6601 25.8933Z" fill="#0C092A"/>
<path d="M35.3399 25.8933C34.6281 24.8992 32.6767 24.3418 30.9958 24.7515C30.8008 24.799 30.6038 24.6806 30.5559 24.4871C30.508 24.2935 30.6273 24.098 30.8223 24.0505C32.7745 23.5747 35.0341 24.2202 35.9327 25.4751C36.0491 25.6376 36.0107 25.8629 35.847 25.9784C35.6833 26.0938 35.4563 26.0557 35.3399 25.8933Z" fill="#0C092A"/>
<mask id="mask3_199_5848" style="mask-type:alpha" maskUnits="userSpaceOnUse" x="4" y="8" width="48" height="51">
<rect x="4" y="8" width="48" height="50.5263" fill="white"/>
</mask>
<g mask="url(#mask3_199_5848)">
<path fill-rule="evenodd" clip-rule="evenodd" d="M11.0916 34.1654C10.9794 28.601 16.2405 16.9855 18.1825 14.6767C19.6231 12.964 23.5817 11.5279 28.0007 11.609C32.4198 11.6901 36.5211 12.6578 38.0007 14.4962C40.2414 17.2801 44.8859 27.8638 44.9098 34.1654C44.9268 38.6406 43.1757 43.1266 40.728 43.3684C39.346 43.5049 37.5904 43.3277 35.481 43.1147L35.4808 43.1147L35.4807 43.1147L35.4805 43.1147L35.4803 43.1147C34.5151 43.0172 33.4758 42.9123 32.3643 42.8265V40.584C35.8042 38.9499 38.1825 35.4437 38.1825 31.3821V26.3272C36.2719 25.2825 34.6454 24.0213 33.2903 22.7398C33.9004 23.8659 34.5982 24.8884 35.385 25.6613C29.8245 24.1128 25.9806 20.942 23.677 18.4559C22.618 20.4551 20.7213 23.3789 17.8188 25.6061V31.382C17.8188 35.4437 20.1971 38.9499 23.637 40.584V42.9616C22.3728 43.1334 21.1979 43.3513 20.1167 43.5519C18.1442 43.9178 16.4835 44.2258 15.1615 44.0902C12.5755 43.825 11.1818 38.6398 11.0916 34.1654Z" fill="#E6E6E6"/>
<mask id="mask4_199_5848" style="mask-type:alpha" maskUnits="userSpaceOnUse" x="11" y="11" width="34" height="34">
<path fill-rule="evenodd" clip-rule="evenodd" d="M11.0916 34.1654C10.9794 28.601 16.2405 16.9855 18.1825 14.6767C19.6231 12.964 23.5817 11.5279 28.0007 11.609C32.4198 11.6901 36.5211 12.6578 38.0007 14.4962C40.2414 17.2801 44.8859 27.8638 44.9098 34.1654C44.9268 38.6406 43.1757 43.1266 40.728 43.3684C39.346 43.5049 37.5904 43.3277 35.481 43.1147L35.4808 43.1147L35.4807 43.1147L35.4805 43.1147L35.4803 43.1147C34.5151 43.0172 33.4758 42.9123 32.3643 42.8265V40.584C35.8042 38.9499 38.1825 35.4437 38.1825 31.3821V26.3272C36.2719 25.2825 34.6454 24.0213 33.2903 22.7398C33.9004 23.8659 34.5982 24.8884 35.385 25.6613C29.8245 24.1128 25.9806 20.942 23.677 18.4559C22.618 20.4551 20.7213 23.3789 17.8188 25.6061V31.382C17.8188 35.4437 20.1971 38.9499 23.637 40.584V42.9616C22.3728 43.1334 21.1979 43.3513 20.1167 43.5519C18.1442 43.9178 16.4835 44.2258 15.1615 44.0902C12.5755 43.825 11.1818 38.6398 11.0916 34.1654Z" fill="white"/>
</mask>
<g mask="url(#mask4_199_5848)">
<rect x="3.81836" y="8" width="48.3636" height="50.5263" fill="#0C092A"/>
</g>
</g>
</g>
</svg>
