<svg width="375" height="415" viewBox="0 0 375 415" fill="none" xmlns="http://www.w3.org/2000/svg">
<path opacity="0.1" fill-rule="evenodd" clip-rule="evenodd" d="M73.4375 370.25C105.366 370.25 131.25 344.366 131.25 312.438C131.25 280.509 105.366 254.625 73.4375 254.625C41.5085 254.625 15.625 280.509 15.625 312.438C15.625 344.366 41.5085 370.25 73.4375 370.25Z" fill="#C4D0FB"/>
<path opacity="0.3" fill-rule="evenodd" clip-rule="evenodd" d="M75 414C130.228 414 175 369.228 175 314C175 258.772 130.228 214 75 214C19.7715 214 -25 258.772 -25 314C-25 369.228 19.7715 414 75 414Z" stroke="#C4D0FB"/>
<path opacity="0.1" fill-rule="evenodd" clip-rule="evenodd" d="M338.438 207.25C370.366 207.25 396.25 181.366 396.25 149.438C396.25 117.509 370.366 91.625 338.438 91.625C306.509 91.625 280.625 117.509 280.625 149.438C280.625 181.366 306.509 207.25 338.438 207.25Z" fill="#C4D0FB"/>
<path opacity="0.3" fill-rule="evenodd" clip-rule="evenodd" d="M340 251C395.228 251 440 206.228 440 151C440 95.7715 395.228 51 340 51C284.772 51 240 95.7715 240 151C240 206.228 284.772 251 340 251Z" stroke="#C4D0FB"/>
<path opacity="0.2" fill-rule="evenodd" clip-rule="evenodd" d="M296 274C301.523 274 306 269.523 306 264C306 258.477 301.523 254 296 254C290.477 254 286 258.477 286 264C286 269.523 290.477 274 296 274Z" fill="#C4D0FB"/>
</svg>
