<svg width="327" height="163" viewBox="0 0 327 163" fill="none" xmlns="http://www.w3.org/2000/svg">
<rect width="327" height="163" rx="20" fill="#FFD6DD"/>
<mask id="mask0_81_1867" style="mask-type:alpha" maskUnits="userSpaceOnUse" x="0" y="0" width="327" height="163">
<rect width="327" height="163" rx="20" fill="#C4D0FB"/>
</mask>
<g mask="url(#mask0_81_1867)">
<path opacity="0.35" d="M400.533 46.6384H265.958C265.958 46.6384 272.595 26.3586 286.448 26.3586C296.821 26.3586 299.324 35.1473 309.282 35.1473C319.241 35.1473 325.912 13 340.971 13C356.814 13 364.63 38.3357 378.92 41.1127C396.466 44.5189 400.533 46.6384 400.533 46.6384Z" fill="white"/>
<path d="M274.236 186.77H419.841C419.841 186.77 415.079 164.448 401.489 164.448C389.762 164.448 379.84 177.758 369.952 177.758C360.064 177.758 355.132 148.278 335.818 148.278C317.851 148.278 303.424 179.216 289.347 181.947C277.213 184.3 274.236 186.77 274.236 186.77Z" fill="#F2F6F9"/>
<path opacity="0.35" d="M97.0004 70.6586L102.849 72.2154C103.103 76.7574 104.819 81.0953 107.743 84.5806C110.667 88.0658 114.64 90.5113 119.069 91.5513C123.498 92.5915 128.144 92.1704 132.312 90.3512C136.483 88.5319 139.952 85.4121 142.2 81.458L143.102 80.8913C146.343 78.8552 148.642 75.6152 149.495 71.8839C150.346 68.1526 149.682 64.2356 147.645 60.9946C147.276 60.4075 146.689 59.9907 146.012 59.8358C145.336 59.6807 144.626 59.8001 144.037 60.1677L139.722 62.8802C138.927 60.9363 137.717 59.1896 136.176 57.7618C135.668 57.2907 134.993 57.0406 134.299 57.0662C133.605 57.0921 132.952 57.3913 132.478 57.8989L120.287 71.0296H116.512C116.498 69.3969 115.901 67.8227 114.83 66.5905C113.759 65.3585 112.283 64.549 110.667 64.3082C109.052 64.0672 107.404 64.4104 106.019 65.2764C104.636 66.1422 103.605 67.4736 103.115 69.0311L102.937 69.0775L97.0004 70.6586Z" fill="white"/>
<path opacity="0.35" d="M173.59 45.9812L177.05 46.8968C177.202 49.583 178.218 52.1483 179.948 54.2091C181.679 56.27 184.028 57.716 186.648 58.3311C189.267 58.9461 192.014 58.6973 194.48 57.622C196.947 56.5465 199 54.702 200.331 52.3641L200.865 52.0293C202.783 50.8249 204.144 48.9081 204.649 46.7002C205.155 44.4921 204.762 42.1741 203.558 40.2558C203.34 39.908 202.991 39.6609 202.592 39.5692C202.19 39.4772 201.771 39.548 201.422 39.7658L198.867 41.3791C198.397 40.23 197.681 39.1975 196.769 38.3541C196.469 38.0748 196.07 37.9264 195.658 37.9415C195.249 37.9566 194.862 38.1341 194.581 38.4348L187.366 46.2071H185.133C185.133 45.2355 184.786 44.2959 184.153 43.5596C183.518 42.8231 182.641 42.3391 181.681 42.1955C180.719 42.0521 179.739 42.2586 178.918 42.7777C178.095 43.2968 177.488 44.0938 177.206 45.0233L177.101 45.0515L173.59 45.9812Z" fill="white"/>
<path d="M298.508 59.3345L252.855 108.515C247.382 114.41 244.475 122.238 244.775 130.277C245.073 138.316 248.554 145.907 254.449 151.379C260.345 156.852 268.173 159.759 276.212 159.46C284.25 159.161 291.841 155.681 297.314 149.785L314.367 131.415C318.955 126.472 322.524 120.675 324.871 114.353C327.218 108.032 328.297 101.309 328.047 94.5706C327.796 87.8318 326.22 81.2084 323.41 75.0786C320.599 68.9489 316.609 63.4326 311.666 58.8451C309.856 57.1655 307.453 56.2736 304.986 56.3653C302.518 56.4571 300.188 57.5251 298.508 59.3345Z" fill="#FFADBC"/>
<path d="M351.756 94.7827L361.835 134.55L297.634 136.714L295.492 128.27L351.756 94.7827Z" fill="#5E93D1"/>
<path d="M269.864 96.9108L247.052 91.0503L218.177 126.223C216.414 128.396 215.107 130.901 214.329 133.588C213.55 136.275 213.321 139.091 213.649 141.869L218.768 183.921L237.478 183.719L231.856 139.776L259.529 120.415C264.599 115.979 267.958 109.739 268.981 102.87L269.864 96.9108Z" fill="#211F5C"/>
<path d="M268.715 56.71C260.975 52.9691 248.28 52.6766 242.7 53.9956C237.12 55.3145 231.449 77.611 231.449 77.611L218.669 95.7613L231.187 103.804L246.148 82.3442L240.207 77.0383C240.207 77.0383 245.636 85.4378 247.03 91.5464H272.831C272.831 91.5464 271.194 79.4462 270.736 72.5249" fill="#FF8FA2"/>
<path d="M217.328 131.384C203.875 131.384 192.969 120.478 192.969 107.024C192.969 93.5706 203.875 82.6646 217.328 82.6646C230.781 82.6646 241.688 93.5706 241.688 107.024C241.688 120.478 230.781 131.384 217.328 131.384Z" fill="#9087E5"/>
<path d="M192.968 107.024C192.968 148.423 226.527 181.985 267.926 181.985C309.324 181.985 342.886 148.423 342.886 107.024" fill="#9087E5"/>
<path d="M242.373 63.9297L238.59 73.267L242.597 83.4997" stroke="#FFE0E6"/>
<path d="M272.722 91.5H249.241L229.075 132.887C227.85 135.414 227.141 138.16 226.989 140.965C226.836 143.769 227.243 146.576 228.185 149.222L243.093 191.002H264.185L250.784 141.254L267.942 116.904C271.897 111.243 273.754 104.381 273.196 97.4976L272.722 91.5Z" fill="#211F5C"/>
<path d="M234.244 96.4266H232.546C231.853 96.4123 231.161 96.4849 230.487 96.6424C229.228 96.9106 228.766 97.8241 226.655 97.927C224.269 98.046 225.983 100.121 227.133 100.347C228.03 100.516 229.111 100.071 229.835 100.627C229.634 101.152 229.595 102.303 226.911 104.57C225.374 105.867 222.676 106.224 223.281 109.434C224.122 111.889 227.948 112.034 229 111.602C232.076 110.342 234.508 107.77 235.776 105.683C236.353 104.679 236.849 103.631 237.263 102.549" fill="#FFCCD7"/>
<path d="M239.291 85.9074L227.978 94.4602L239.055 106.292L264.883 88.6522C264.883 88.6522 273.756 67.2651 267.608 61.2554" fill="#FF8FA2"/>
<path d="M239.83 41.5021C235.639 41.5021 232.241 37.1628 232.241 31.8099C232.241 26.457 235.639 22.1177 239.83 22.1177C244.021 22.1177 247.419 26.457 247.419 31.8099C247.419 37.1628 244.021 41.5021 239.83 41.5021Z" fill="#24272D"/>
<path d="M251.285 58.668C250.156 58.6674 249.058 58.2985 248.158 57.6171C247.258 56.9356 246.604 55.9791 246.297 54.8927L241.48 37.892C241.274 37.2307 241.202 36.535 241.27 35.8457C241.337 35.1564 241.542 34.4876 241.872 33.8788C242.202 33.2697 242.65 32.7332 243.191 32.3004C243.732 31.8677 244.353 31.5476 245.02 31.359C245.686 31.1705 246.384 31.1173 247.071 31.2026C247.758 31.2879 248.421 31.51 249.022 31.8557C249.622 32.2015 250.146 32.6639 250.565 33.2157C250.983 33.7675 251.287 34.3975 251.458 35.0686L256.276 52.0714C256.494 52.843 256.531 53.6547 256.382 54.4428C256.234 55.2307 255.905 55.9737 255.422 56.6134C254.938 57.2531 254.313 57.772 253.595 58.1295C252.877 58.4871 252.087 58.6734 251.285 58.674V58.668Z" fill="#FFCCD7"/>
<path d="M246.545 51.1175L245.64 51.3696C244.586 51.6606 243.481 51.7159 242.404 51.5315C241.327 51.347 240.303 50.9275 239.406 50.3028C238.51 49.678 237.761 48.8635 237.215 47.9166C236.669 46.97 236.338 45.9144 236.246 44.8254L235.788 39.4288C235.641 37.6873 236.111 35.9498 237.117 34.5205C238.122 33.0912 239.599 32.0616 241.288 31.6121C243.195 31.1072 245.224 31.3804 246.93 32.3716C248.635 33.3627 249.877 34.9908 250.383 36.8978L251.746 42.0444C252.247 43.9369 251.982 45.9505 251.009 47.649C250.035 49.3475 248.431 50.5938 246.545 51.1175Z" fill="#FFCCD7"/>
<path d="M239.425 40.0498L238.142 44.8032L240.018 44.8374" stroke="#25282D"/>
<path d="M241.687 41.8972C241.185 41.8972 240.778 41.49 240.778 40.9877C240.778 40.4853 241.185 40.0781 241.687 40.0781C242.19 40.0781 242.597 40.4853 242.597 40.9877C242.597 41.49 242.19 41.8972 241.687 41.8972Z" fill="#24272D"/>
<path d="M237.313 41.8972C236.811 41.8972 236.404 41.49 236.404 40.9877C236.404 40.4853 236.811 40.0781 237.313 40.0781C237.815 40.0781 238.223 40.4853 238.223 40.9877C238.223 41.49 237.815 41.8972 237.313 41.8972Z" fill="#24272D"/>
<path d="M241.947 46.6385C241.947 46.6385 243.065 46.576 243.524 45.606" stroke="#25282D"/>
<path d="M283.991 45.848C284.999 57.6295 275.033 53.7998 275.033 53.7998C275.033 53.7998 281.399 66.7308 267.152 65.6519C252.904 64.573 249.016 54.4512 249.566 48.6633C249.786 46.3562 250.978 44.5694 252.343 42.8451C244.534 41.6452 244.653 36.2888 244.653 36.2888C244.653 36.2888 232.134 41.1531 232.235 31.5597C232.336 21.9663 242.211 18.8908 248.048 18.9916C249.277 19.0173 250.495 19.2288 251.661 19.6188C255.418 20.841 258.329 22.8334 263.314 22.9121C277.088 23.1299 278.411 36.1376 278.411 36.1376C278.411 36.1376 283.313 37.8739 283.991 45.848Z" fill="#24272D"/>
<path d="M248.302 44.5301L248.3 44.5293C246.595 43.8106 245.796 41.8461 246.515 40.1414L247.699 37.3334C248.417 35.6287 250.382 34.8294 252.087 35.5482L252.088 35.549C253.793 36.2675 254.592 38.2322 253.874 39.9369L252.69 42.7448C251.971 44.4495 250.007 45.2487 248.302 44.5301Z" fill="#FFCCD7"/>
<path d="M251.327 37.6641L249.645 41.645" stroke="#25282D"/>
<path d="M172.279 105.701L193.391 111.324L196.618 112.181C197.469 112.181 198.312 112.014 199.099 111.689C199.885 111.363 200.599 110.886 201.2 110.284C201.803 109.682 202.279 108.968 202.604 108.181C202.93 107.395 203.096 106.552 203.096 105.701H172.279Z" fill="#FFADBC"/>
<path d="M214.113 99.2215C212.621 99.2215 211.413 98.0125 211.413 96.5212C211.413 95.0298 212.621 93.8208 214.113 93.8208C215.603 93.8208 216.813 95.0298 216.813 96.5212C216.813 98.0125 215.603 99.2215 214.113 99.2215Z" fill="#FFADBC"/>
<path d="M172.279 105.701H203.094C203.094 104.85 202.928 104.007 202.604 103.221C202.277 102.434 201.801 101.72 201.198 101.118C200.597 100.516 199.883 100.039 199.097 99.7134C198.31 99.3881 197.467 99.2209 196.616 99.2217L193.389 100.081L172.279 105.701Z" fill="#FFADBC"/>
<path d="M234.373 89.6243L250.486 77.623L254.328 66.5332" stroke="#FFE0E6"/>
<path d="M260.751 91.4775C260.751 91.4775 264.851 89.0857 265.912 85.9598C266.973 82.8339 271.155 69.1426 271.155 69.1426" stroke="#FFE0E6"/>
<path d="M248.536 137.124L250.784 141.25L248.536 144.107" stroke="#FFE0E6"/>
<path d="M339.624 68.2392L282.79 103.933C275.978 108.211 271.144 115.021 269.353 122.863C267.561 130.705 268.958 138.938 273.236 145.75C277.514 152.562 284.323 157.396 292.165 159.188C300.008 160.98 308.24 159.583 315.053 155.304L336.284 141.97C341.995 138.384 346.944 133.708 350.848 128.208C354.752 122.709 357.534 116.495 359.036 109.92C360.538 103.346 360.73 96.5395 359.601 89.8906C358.472 83.242 356.045 76.8805 352.458 71.1699C351.144 69.0806 349.054 67.5983 346.648 67.0487C344.241 66.4992 341.715 66.9273 339.624 68.2392Z" fill="#FFADBC"/>
<path d="M324.46 77.6025L282.257 104.154C282.257 104.154 277.52 107.502 275.34 110.904" stroke="#FFE0E6"/>
</g>
</svg>
