<svg width="30" height="30" viewBox="0 0 30 30" fill="none" xmlns="http://www.w3.org/2000/svg">
<g clip-path="url(#clip0_81_2148)">
<path d="M14.9992 25.8002C13.5809 25.8002 12.1766 25.5208 10.8662 24.9781C9.55592 24.4353 8.36534 23.6398 7.36247 22.6369C6.35959 21.6341 5.56407 20.4435 5.02132 19.1332C4.47857 17.8229 4.19922 16.4185 4.19922 15.0002C4.19922 13.5819 4.47857 12.1775 5.02132 10.8672C5.56407 9.5569 6.35959 8.36631 7.36247 7.36344C8.36534 6.36057 9.55592 5.56505 10.8662 5.0223C12.1766 4.47955 13.5809 4.2002 14.9992 4.2002C17.8636 4.2002 20.6106 5.21162 22.636 7.01197C24.6614 8.81232 25.7992 11.2541 25.7992 13.8002C25.7992 15.0732 25.2303 16.2941 24.2176 17.1943C23.2049 18.0945 21.8314 18.6002 20.3992 18.6002H17.3992C16.8639 18.5916 16.341 18.7622 15.9138 19.085C15.4866 19.4078 15.1795 19.8641 15.0416 20.3815C14.9036 20.8989 14.9426 21.4475 15.1524 21.9401C15.3622 22.4328 15.7306 22.8411 16.1992 23.1002C16.4388 23.3213 16.6031 23.6119 16.6691 23.9312C16.735 24.2504 16.6993 24.5823 16.5669 24.8803C16.4344 25.1782 16.212 25.4271 15.9309 25.5921C15.6497 25.7571 15.3239 25.8299 14.9992 25.8002" stroke="white" stroke-width="2" stroke-linecap="round" stroke-linejoin="round"/>
<path d="M9.6 13.8001C9.93137 13.8001 10.2 13.5315 10.2 13.2001C10.2 12.8687 9.93137 12.6001 9.6 12.6001C9.26863 12.6001 9 12.8687 9 13.2001C9 13.5315 9.26863 13.8001 9.6 13.8001Z" fill="white" stroke="white" stroke-width="2" stroke-linecap="round" stroke-linejoin="round"/>
<path d="M14.9994 10.2C15.3308 10.2 15.5994 9.93137 15.5994 9.6C15.5994 9.26863 15.3308 9 14.9994 9C14.668 9 14.3994 9.26863 14.3994 9.6C14.3994 9.93137 14.668 10.2 14.9994 10.2Z" fill="white" stroke="white" stroke-width="2" stroke-linecap="round" stroke-linejoin="round"/>
<path d="M20.3998 13.8001C20.7312 13.8001 20.9998 13.5315 20.9998 13.2001C20.9998 12.8687 20.7312 12.6001 20.3998 12.6001C20.0684 12.6001 19.7998 12.8687 19.7998 13.2001C19.7998 13.5315 20.0684 13.8001 20.3998 13.8001Z" fill="white" stroke="white" stroke-width="2" stroke-linecap="round" stroke-linejoin="round"/>
</g>
<defs>
<clipPath id="clip0_81_2148">
<rect width="28.8" height="28.8" fill="white" transform="translate(0.599609 0.600098)"/>
</clipPath>
</defs>
</svg>
