<svg width="30" height="30" viewBox="0 0 30 30" fill="none" xmlns="http://www.w3.org/2000/svg">
<g clip-path="url(#clip0_81_2164)">
<path d="M8.99941 16.2002H7.79941C6.47393 16.2002 5.39941 17.2747 5.39941 18.6002V22.2002C5.39941 23.5257 6.47393 24.6002 7.79941 24.6002H8.99941C10.3249 24.6002 11.3994 23.5257 11.3994 22.2002V18.6002C11.3994 17.2747 10.3249 16.2002 8.99941 16.2002Z" fill="white" stroke="white" stroke-width="2" stroke-linecap="round" stroke-linejoin="round"/>
<path d="M22.1996 16.2002H20.9996C19.6741 16.2002 18.5996 17.2747 18.5996 18.6002V22.2002C18.5996 23.5257 19.6741 24.6002 20.9996 24.6002H22.1996C23.5251 24.6002 24.5996 23.5257 24.5996 22.2002V18.6002C24.5996 17.2747 23.5251 16.2002 22.1996 16.2002Z" fill="white" stroke="white" stroke-width="2" stroke-linecap="round" stroke-linejoin="round"/>
<path d="M5.39941 18.5999V14.9999C5.39941 12.4538 6.41084 10.012 8.21119 8.21168C10.0115 6.41133 12.4533 5.3999 14.9994 5.3999C17.5455 5.3999 19.9873 6.41133 21.7876 8.21168C23.588 10.012 24.5994 12.4538 24.5994 14.9999V18.5999" stroke="white" stroke-width="2" stroke-linecap="round" stroke-linejoin="round"/>
</g>
<defs>
<clipPath id="clip0_81_2164">
<rect width="28.8" height="28.8" fill="white" transform="translate(0.599609 0.600098)"/>
</clipPath>
</defs>
</svg>
