<svg width="24" height="24" viewBox="0 0 24 24" fill="none" xmlns="http://www.w3.org/2000/svg">
<path d="M12 14C14.2091 14 16 12.2091 16 10C16 7.79086 14.2091 6 12 6C9.79086 6 8 7.79086 8 10C8 12.2091 9.79086 14 12 14Z" stroke="#0C092A" stroke-width="2" stroke-linecap="round" stroke-linejoin="round"/>
<path d="M6.75 16C7.59393 16.733 8.58187 17.2814 9.65035 17.61C10.7188 17.9385 11.8442 18.0399 12.9542 17.9076C14.0642 17.7754 15.1342 17.4124 16.0956 16.842C17.057 16.2716 17.8884 15.5065 18.5365 14.5957C19.1845 13.6849 19.6349 12.6486 19.8587 11.5533C20.0825 10.4581 20.0747 9.32822 19.8358 8.2362C19.5969 7.14418 19.1323 6.1142 18.4717 5.21243C17.8111 4.31066 16.9692 3.55705 16 3" stroke="#0C092A" stroke-width="2" stroke-linecap="round" stroke-linejoin="round"/>
<path d="M12 18V22" stroke="#0C092A" stroke-width="2" stroke-linecap="round" stroke-linejoin="round"/>
<path d="M8 22H16" stroke="#0C092A" stroke-width="2" stroke-linecap="round" stroke-linejoin="round"/>
</svg>
