<svg width="20" height="20" viewBox="0 0 20 20" fill="none" xmlns="http://www.w3.org/2000/svg">
<path d="M10.8487 0.75149C10.6237 0.526525 10.3185 0.400146 10.0003 0.400146C9.6821 0.400146 9.37693 0.526525 9.15189 0.75149L0.751893 9.15149C0.533303 9.37781 0.41235 9.68093 0.415084 9.99557C0.417819 10.3102 0.544021 10.6112 0.766511 10.8337C0.989001 11.0562 1.28998 11.1824 1.60461 11.1851C1.91925 11.1878 2.22237 11.0669 2.44869 10.8483L2.80029 10.4967V18.3999C2.80029 18.7181 2.92672 19.0234 3.15177 19.2484C3.37681 19.4735 3.68203 19.5999 4.00029 19.5999H6.40029C6.71855 19.5999 7.02378 19.4735 7.24882 19.2484C7.47386 19.0234 7.60029 18.7181 7.60029 18.3999V15.9999C7.60029 15.6816 7.72672 15.3764 7.95177 15.1514C8.17681 14.9263 8.48203 14.7999 8.80029 14.7999H11.2003C11.5186 14.7999 11.8238 14.9263 12.0488 15.1514C12.2739 15.3764 12.4003 15.6816 12.4003 15.9999V18.3999C12.4003 18.7181 12.5267 19.0234 12.7518 19.2484C12.9768 19.4735 13.282 19.5999 13.6003 19.5999H16.0003C16.3186 19.5999 16.6238 19.4735 16.8488 19.2484C17.0739 19.0234 17.2003 18.7181 17.2003 18.3999V10.4967L17.5519 10.8483C17.7782 11.0669 18.0813 11.1878 18.396 11.1851C18.7106 11.1824 19.0116 11.0562 19.2341 10.8337C19.4566 10.6112 19.5828 10.3102 19.5855 9.99557C19.5882 9.68093 19.4673 9.37781 19.2487 9.15149L10.8487 0.75149Z" fill="#0C092A"/>
</svg>
